<?xml version="1.0" standalone="no"?>
<!DOCTYPE svg PUBLIC "-//W3C//DTD SVG 1.1//EN" "http://www.w3.org/Graphics/SVG/1.1/DTD/svg11.dtd" >
<svg xmlns="http://www.w3.org/2000/svg">
<metadata>Generated by IcoMoon</metadata>
<defs>
<font id="sp-icon-multi" horiz-adv-x="1024">
<font-face units-per-em="1024" ascent="960" descent="-64" />
<missing-glyph horiz-adv-x="1024" />
<glyph unicode="&#x20;" horiz-adv-x="512" d="" />
<glyph unicode="&#xc900;" horiz-adv-x="1152" d="M384 80h-64v96h64zM320 816v-96h64v96zM512 496v-96h64v96zM320 496v-96h64v96zM512 80h320v96h-320zM704 400h256v96h-256zM1088 960c-35.346 0-64-28.654-64-64v0-928c0-17.673 14.327-32 32-32v0h64c17.673 0 32 14.327 32 32v0 928c0 35.346-28.654 64-64 64v0zM832 816h-320v-96h320zM64 960c-35.346 0-64-28.654-64-64v0-928c0-17.673 14.327-32 32-32v0h64c17.673 0 32 14.327 32 32v0 928c0 35.346-28.654 64-64 64v0z" />
<glyph unicode="&#xc901;" horiz-adv-x="1152" d="M288 896h-64c-17.673 0-32-14.327-32-32v0-192c0-17.673 14.327-32 32-32v0h64c17.673 0 32 14.327 32 32v0 192c0 17.673-14.327 32-32 32v0zM480 896h-64c-17.673 0-32-14.327-32-32v0-192c0-17.673 14.327-32 32-32v0h64c17.673 0 32 14.327 32 32v0 192c0 17.673-14.327 32-32 32v0zM288 576h-64c-17.673 0-32-14.327-32-32v0-192c0-17.673 14.327-32 32-32v0h64c17.673 0 32 14.327 32 32v0 192c0 17.673-14.327 32-32 32v0zM672 576h-64c-17.673 0-32-14.327-32-32v0-192c0-17.673 14.327-32 32-32v0h64c17.673 0 32 14.327 32 32v0 192c0 17.673-14.327 32-32 32v0zM480 576h-64c-17.673 0-32-14.327-32-32v0-192c0-17.673 14.327-32 32-32v0h64c17.673 0 32 14.327 32 32v0 192c0 17.673-14.327 32-32 32v0zM928 896h-64c-17.673 0-32-14.327-32-32v0-192c0-17.673 14.327-32 32-32v0h64c17.673 0 32 14.327 32 32v0 192c0 17.673-14.327 32-32 32v0zM288 256h-64c-17.673 0-32-14.327-32-32v0-192c0-17.673 14.327-32 32-32v0h64c17.673 0 32 14.327 32 32v0 192c0 17.673-14.327 32-32 32v0zM480 256h-64c-17.673 0-32-14.327-32-32v0-192c0-17.673 14.327-32 32-32v0h64c17.673 0 32 14.327 32 32v0 192c0 17.673-14.327 32-32 32v0zM928 256h-64c-17.673 0-32-14.327-32-32v0-192c0-17.673 14.327-32 32-32v0h64c17.673 0 32 14.327 32 32v0 192c0 17.673-14.327 32-32 32v0z" />
<glyph unicode="&#xc902;" horiz-adv-x="896" d="M64 448h768c0-0.003 0-0.006 0-0.009 0-201.548-115.165-376.198-283.279-461.733l-2.941-1.358-97.78-48.9-97.78 48.9c-171.055 86.893-286.22 261.543-286.22 463.091 0 0.003 0 0.006 0 0.010v0z" />
<glyph unicode="&#xc903;" horiz-adv-x="896" d="M896 640v-64c0-35.346-28.654-64-64-64v0h-768c-35.346 0-64 28.654-64 64v0 64c0 106.039 85.961 192 192 192v0h212c10.115 45.431 30.681 85.021 59.089 117.595l-0.269-0.315c5.583 6.3 13.606 10.329 22.573 10.599l0.047 0.001c0.517 0.031 1.121 0.048 1.729 0.048 8.746 0 16.642-3.636 22.261-9.478l0.010-0.010 22.56-22.64c5.776-5.788 9.348-13.778 9.348-22.603 0-8.146-3.044-15.582-8.057-21.231l0.029 0.033c-12.665-14.744-22.938-31.994-29.94-50.834l-0.38-1.166h201c106.039 0 192-85.961 192-192v0z" />
<glyph unicode="&#xc904;" d="M704 448c-26.51 0-48-21.49-48-48s21.49-48 48-48c26.51 0 48 21.49 48 48v0c0 26.51-21.49 48-48 48v0zM315.040 416h74l-37.040 106.44zM928 832h-832c-53.019 0-96-42.981-96-96v0-576c0-53.019 42.981-96 96-96v0h832c53.019 0 96 42.981 96 96v0 576c0 53.019-42.981 96-96 96v0zM501.16 256h-33.88c-0.003 0-0.008 0-0.012 0-13.912 0-25.75 8.877-30.159 21.276l-0.069 0.224-14.74 42.5h-140.58l-14.76-42.5c-4.478-12.623-16.317-21.5-30.228-21.5-0.004 0-0.008 0-0.012 0h-33.879c-0.003 0-0.008 0-0.012 0-17.673 0-32 14.327-32 32 0 3.761 0.649 7.371 1.841 10.724l-0.069-0.224 107.4 309.26c6.72 18.929 24.475 32.24 45.339 32.24 0 0 0.001 0 0.001 0h53.32c20.869-0.003 38.626-13.323 45.236-31.924l0.104-0.336 107.38-309.24c1.123-3.129 1.772-6.739 1.772-10.5 0-17.67-14.322-31.995-31.991-32v0zM848 288c0-17.673-14.327-32-32-32v0h-32c-9.633 0.067-18.229 4.45-23.959 11.31l-0.041 0.050c-16.544-7.182-35.814-11.36-56.059-11.36-79.529 0-144 64.471-144 144s64.471 144 144 144c0.021 0 0.042 0 0.063 0h-0.003c17.278-0.17 33.752-3.397 48.977-9.165l-0.977 0.325v72.84c0 17.673 14.327 32 32 32v0h32c17.673 0 32-14.327 32-32v0z" />
<glyph unicode="&#xc905;" d="M424 607.74c-6.714 18.937-24.471 32.257-45.34 32.26h-53.32c0 0-0.001 0-0.001 0-20.864 0-38.619-13.311-45.235-31.905l-0.104-0.335-107.4-309.26c-1.123-3.129-1.772-6.739-1.772-10.5 0-17.673 14.327-32 32-32 0.004 0 0.008 0 0.012 0h33.879c0.003 0 0.008 0 0.012 0 13.912 0 25.75 8.877 30.159 21.276l0.069 0.224 14.76 42.5h140.58l14.74-42.5c4.478-12.623 16.317-21.5 30.228-21.5 0.004 0 0.008 0 0.012 0h33.879c17.67 0.005 31.992 14.33 31.992 32 0 3.761-0.649 7.371-1.841 10.724l0.069-0.224zM315.040 416l36.96 106.44 36.96-106.44zM816 640h-32c-17.673 0-32-14.327-32-32v0-72.84c-14.248 5.443-30.722 8.67-47.927 8.839l-0.073 0.001c-0.018 0-0.038 0-0.059 0-79.529 0-144-64.471-144-144s64.471-144 144-144c20.245 0 39.515 4.178 56.994 11.719l-0.935-0.359c5.771-6.91 14.367-11.293 23.989-11.36h32.011c17.673 0 32 14.327 32 32v0 320c0 17.673-14.327 32-32 32v0zM704 352c-26.51 0-48 21.49-48 48s21.49 48 48 48c26.51 0 48-21.49 48-48v0c0-26.51-21.49-48-48-48v0z" />
<glyph unicode="&#xc906;" horiz-adv-x="896" d="M832 864c0 53.019-42.981 96-96 96v0h-640c-53.019 0-96-42.981-96-96v0-832c0-53.019 42.981-96 96-96v0h640c53.019 0 96 42.981 96 96v0zM416 704c70.692 0 128-57.308 128-128s-57.308-128-128-128c-70.692 0-128 57.308-128 128v0c0.068 70.665 57.335 127.932 127.993 128h0.007zM640 230.4c0-21.2-20-38.4-44.8-38.4h-358.4c-24.8 0-44.8 17.2-44.8 38.4v38.4c0 63.6 60.2 115.2 134.4 115.2h10c23.504-10.117 50.865-16 79.6-16s56.095 5.883 80.943 16.511l-1.343-0.511h10c74.2 0 134.4-51.6 134.4-115.2z" />
<glyph unicode="&#xc907;" horiz-adv-x="896" d="M505.6 384h-10c-23.504-10.117-50.865-16-79.6-16s-56.095 5.883-80.943 16.511l1.343-0.511h-10c-74.2 0-134.4-51.6-134.4-115.2v-38.4c0-21.2 20-38.4 44.8-38.4h358.4c24.8 0 44.8 17.2 44.8 38.4v38.4c0 63.6-60.2 115.2-134.4 115.2zM416 448c70.692 0 128 57.308 128 128s-57.308 128-128 128c-70.692 0-128-57.308-128-128v0c0.068-70.665 57.335-127.932 127.993-128h0.007zM872 512h-40v-128h40c13.255 0 24 10.745 24 24v0 80c0 13.255-10.745 24-24 24v0zM872 256h-40v-128h40c13.255 0 24 10.745 24 24v0 80c0 13.255-10.745 24-24 24v0zM872 768h-40v-128h40c13.255 0 24 10.745 24 24v0 80c0 13.255-10.745 24-24 24v0z" />
<glyph unicode="&#xc908;" horiz-adv-x="1152" d="M1056 896h-960c-53.019 0-96-42.981-96-96v0-704c0-53.019 42.981-96 96-96v0h960c53.019 0 96 42.981 96 96v0 704c0 53.019-42.981 96-96 96v0zM352 704c70.692 0 128-57.308 128-128s-57.308-128-128-128c-70.692 0-128 57.308-128 128v0c0.068 70.665 57.335 127.932 127.993 128h0.007zM576 230.4c0-21.2-20-38.4-44.8-38.4h-358.4c-24.8 0-44.8 17.2-44.8 38.4v38.4c0 63.6 60.2 115.2 134.4 115.2h10c23.504-10.117 50.865-16 79.6-16s56.095 5.883 80.943 16.511l-1.343-0.511h10c74.2 0 134.4-51.6 134.4-115.2zM1024 336c0-8.837-7.163-16-16-16v0h-288c-8.837 0-16 7.163-16 16v0 32c0 8.837 7.163 16 16 16v0h288c8.837 0 16-7.163 16-16v0zM1024 464c0-8.837-7.163-16-16-16v0h-288c-8.837 0-16 7.163-16 16v0 32c0 8.837 7.163 16 16 16v0h288c8.837 0 16-7.163 16-16v0zM1024 592c0-8.837-7.163-16-16-16v0h-288c-8.837 0-16 7.163-16 16v0 32c0 8.837 7.163 16 16 16v0h288c8.837 0 16-7.163 16-16v0z" />
<glyph unicode="&#xc909;" horiz-adv-x="1152" d="M352 448c70.692 0 128 57.308 128 128s-57.308 128-128 128c-70.692 0-128-57.308-128-128v0c0.068-70.665 57.335-127.932 127.993-128h0.007zM441.6 384h-10c-23.504-10.117-50.865-16-79.6-16s-56.095 5.883-80.943 16.511l1.343-0.511h-10c-74.2 0-134.4-51.6-134.4-115.2v-38.4c0-21.2 20-38.4 44.8-38.4h358.4c24.8 0 44.8 17.2 44.8 38.4v38.4c0 63.6-60.2 115.2-134.4 115.2z" />
<glyph unicode="&#xc90a;" d="M1008 448c0-274-222-496-496-496v992c274 0 496-222 496-496z" />
<glyph unicode="&#xc90b;" d="M512 944v-992c-274 0-496 222-496 496s222 496 496 496z" />
<glyph unicode="&#xc90c;" horiz-adv-x="1152" d="M432 112c0-44.183-35.817-80-80-80v0h-12.44c-40 0-76.38 27.76-82.56 67.22-5.76 36.82 13.84 68.44 43.68 82.94 11.46 5.56 19.32 16.5 19.32 29.26v35.24c-0.029 17.761-14.434 32.149-32.2 32.149-3.813 0-7.471-0.663-10.865-1.879l0.225 0.070c-68.824-24.638-117.178-89.293-117.178-165.242 0-7.84 0.515-15.559 1.514-23.126l-0.096 0.889c11.12-89.16 91.7-153.52 181.56-153.52h9.040c97.202 0 176 78.798 176 176v0 336h-96zM874.84 341c-3.17 1.146-6.827 1.809-10.64 1.809-17.766 0-32.171-14.387-32.2-32.146v-35.243c0-12.76 7.86-23.7 19.32-29.26 29.84-14.5 49.44-46.12 43.68-82.94-6.18-39.46-42.6-67.22-82.54-67.22h-12.46c-44.183 0-80 35.817-80 80v0 272h-96v-272c0-97.202 78.798-176 176-176v0h9.060c89.84 0 170.42 64.36 181.54 153.52 0.903 6.678 1.418 14.398 1.418 22.238 0 75.949-48.354 140.604-115.956 164.86l-1.222 0.383zM128 704v-64h896v64z" />
<glyph unicode="&#xc90d;" horiz-adv-x="1152" d="M1088 960h-1024c-35.346 0-64-28.654-64-64v0-320c0-35.346 28.654-64 64-64v0h1024c35.346 0 64 28.654 64 64v0 320c0 35.346-28.654 64-64 64v0zM1024 640h-896v64h896z" />
<glyph unicode="&#xc90e;" d="M320 448c-88.25 0-160-71.75-160-160s71.75-160 160-160 160 71.75 160 160-71.75 160-160 160zM384 704h-128v-64h128v64zM763.562 856.844c2.438 1.218 4.438 4.438 4.438 7.156 0 2.75-2 5.938-4.438 7.156l-59.562 24.844-24.876 59.562c-1.186 2.438-4.374 4.438-7.124 4.438s-5.938-2-7.188-4.438l-24.812-59.562-59.562-24.844c-2.438-1.218-4.438-4.406-4.438-7.156 0-2.718 2-5.938 4.438-7.156l59.562-24.844 24.812-59.562c1.25-2.438 4.438-4.438 7.188-4.438s5.938 2 7.124 4.438l24.876 59.562 59.562 24.844zM896 832l24.812-59.562c1.25-2.438 4.438-4.438 7.188-4.438s5.938 2 7.124 4.438l24.876 59.562 59.562 24.844c2.438 1.218 4.438 4.438 4.438 7.156 0 2.75-2 5.938-4.438 7.156l-59.562 24.844-24.876 59.562c-1.186 2.438-4.374 4.438-7.124 4.438s-5.938-2-7.188-4.438l-24.812-59.562-59.562-24.844c-2.438-1.218-4.438-4.406-4.438-7.156 0-2.718 2-5.938 4.438-7.156l59.562-24.844zM960 512l-24.876 59.562c-1.186 2.438-4.374 4.438-7.124 4.438s-5.938-2-7.188-4.438l-24.812-59.562-59.562-24.844c-2.438-1.218-4.438-4.406-4.438-7.156 0-2.718 2-5.938 4.438-7.156l59.562-24.844 24.812-59.562c1.25-2.438 4.438-4.438 7.188-4.438s5.938 2 7.124 4.438l24.876 59.562 59.562 24.844c2.438 1.218 4.438 4.438 4.438 7.156 0 2.75-2 5.938-4.438 7.156l-59.562 24.844zM891.562 664.844c2.438 1.218 4.438 4.438 4.438 7.156 0 2.75-2 5.938-4.438 7.156l-59.562 24.844-24.876 59.562c-1.186 2.438-4.374 4.438-7.124 4.438s-5.938-2-7.188-4.438l-24.812-59.562-59.562-24.844c-2.438-1.218-4.438-4.406-4.438-7.156 0-2.718 2-5.938 4.438-7.156l59.562-24.844 24.812-59.562c1.25-2.438 4.438-4.438 7.188-4.438s5.938 2 7.124 4.438l24.876 59.562 59.562 24.844z" />
<glyph unicode="&#xc90f;" d="M448 640h-256c-106 0-192-86-192-192v-448c0-35.25 28.75-64 64-64h512c35.25 0 64 28.75 64 64v448c0 106-86 192-192 192zM320 128c-88.25 0-160 71.75-160 160s71.75 160 160 160 160-71.75 160-160-71.75-160-160-160zM448 896c0 35.25-28.75 64-64 64h-128c-35.25 0-64-28.75-64-64v-192h256v192z" />
<glyph unicode="&#xc910;" d="M948.98 35.88l-79.88 80.12c55.702 73.673 89.22 166.819 89.22 267.793 0 0.073 0 0.145 0 0.218v-0.011c0 247.42-199.8 448-446.28 448s-446.28-200.58-446.28-448c0-0.061 0-0.134 0-0.207 0-100.975 33.518-194.121 90.035-268.919l-0.815 1.126-79.9-80.12c-5.768-5.802-9.334-13.8-9.334-22.63s3.566-16.828 9.335-22.632l-0.002 0.002 45.080-45.24c5.76-5.787 13.732-9.368 22.54-9.368 8.739 0 16.654 3.525 22.402 9.23l0.138 0.138 79.88 80.18c73.301-55.901 166.179-89.564 266.92-89.564s193.619 33.663 268 90.354l-1.080-0.79 79.88-80.18c5.76-5.787 13.732-9.368 22.54-9.368 8.739 0 16.654 3.525 22.402 9.23l0.138 0.138 45.060 45.24c5.792 5.791 9.375 13.792 9.375 22.63s-3.583 16.839-9.375 22.63v0zM692 248.98l-40-50c-5.914-7.349-14.907-12.012-24.99-12.012-7.592 0-14.566 2.644-20.052 7.060l0.062-0.048-129.020 103.24c-18.355 14.784-30 37.257-30 62.45 0 0.004 0 0.007 0 0.011v-0.001 248.32c0 17.673 14.327 32 32 32v0h64c17.673 0 32-14.327 32-32v0-225.24l111-88.76c7.36-5.913 12.032-14.914 12.032-25.005 0-7.603-2.651-14.586-7.079-20.076l0.048 0.061z" />
<glyph unicode="&#xc911;" d="M2 768c0.154-38.123 11.503-73.565 30.926-103.246l-0.446 0.726 290.66 243.16c-33.882 31.811-79.608 51.355-129.899 51.36h-0.001c-105.58 0-191.24-86-191.24-192zM687 294l-111 88.76v225.24c0 17.673-14.327 32-32 32v0h-64c-17.673 0-32-14.327-32-32v0-248.32c0-0.003 0-0.006 0-0.010 0-25.193 11.645-47.666 29.846-62.33l0.154-0.12 129.020-103.22c5.425-4.369 12.399-7.012 19.99-7.012 10.083 0 19.076 4.663 24.942 11.95l0.048 0.062 40 50c4.375 5.427 7.022 12.405 7.022 20.002 0 10.087-4.667 19.084-11.96 24.949l-0.062 0.048zM830.76 960c-50.269-0.022-95.974-19.546-129.963-51.416l0.103 0.096 290.66-243.14c18.948 28.943 30.28 64.362 30.44 102.418v0.042c0 106-85.66 192-191.24 192z" />
<glyph unicode="&#xc912;" d="M869.1 116c55.702 73.677 89.22 166.828 89.22 267.807 0 0.068 0 0.136 0 0.204v-0.011c0 247.42-199.8 448-446.28 448s-446.28-200.58-446.28-448c0-0.057 0-0.125 0-0.193 0-100.979 33.518-194.13 90.035-268.933l-0.815 1.126-79.9-80.12c-5.768-5.802-9.334-13.8-9.334-22.63s3.566-16.828 9.335-22.632l-0.002 0.002 45.080-45.24c5.758-5.792 13.73-9.377 22.54-9.377s16.782 3.585 22.538 9.375l0.002 0.002 79.88 80.18c73.302-55.898 166.18-89.559 266.92-89.559s193.618 33.661 268 90.349l-1.080-0.79 79.88-80.18c5.758-5.792 13.73-9.377 22.54-9.377s16.782 3.585 22.538 9.375l0.002 0.002 45.060 45.24c5.792 5.791 9.375 13.792 9.375 22.63s-3.583 16.839-9.375 22.63v0zM512 128c-0.071 0-0.156 0-0.24 0-35.346 0-64 28.654-64 64s28.654 64 64 64c35.346 0 64-28.654 64-64v0c0-0.053 0-0.117 0-0.18 0-35.226-28.539-63.786-63.757-63.82h-0.003zM588.1 604.8l-25.5-256c-1.591-16.213-15.145-28.781-31.638-28.8h-37.862c-16.508 0.008-30.078 12.577-31.669 28.668l-0.011 0.132-25.42 256c-0.102 0.96-0.16 2.074-0.16 3.201 0 17.589 14.191 31.863 31.748 31.999h88.853c0.005 0 0.012 0 0.018 0 17.585 0 31.84-14.255 31.84-31.84 0-1.184-0.065-2.352-0.19-3.502l0.013 0.142z" />
<glyph unicode="&#xc913;" d="M2 768c0.158-38.123 11.506-73.564 30.926-103.246l-0.446 0.726 290.66 243.16c-33.882 31.811-79.608 51.355-129.899 51.36h-0.001c-105.58 0-191.24-86-191.24-192zM830.76 960c-50.269-0.024-95.973-19.547-129.964-51.416l0.104 0.096 290.66-243.14c18.948 28.943 30.28 64.362 30.44 102.418v0.042c0 106-85.66 192-191.24 192zM512 256c-0.071 0-0.156 0-0.24 0-35.346 0-64-28.654-64-64s28.654-64 64-64c35.346 0 64 28.654 64 64v0c0 0.053 0 0.117 0 0.18 0 35.226-28.539 63.786-63.757 63.82h-0.003zM556.42 640h-88.82c-17.57-0.136-31.76-14.41-31.76-31.999 0-1.127 0.058-2.241 0.172-3.338l-0.012 0.137 25.52-256c1.598-16.188 15.114-28.739 31.574-28.8h37.866c16.503 0.009 30.068 12.58 31.65 28.669l0.010 0.131 25.5 256c0.113 1.008 0.178 2.176 0.178 3.36 0 17.585-14.255 31.84-31.84 31.84-0.006 0-0.013 0-0.019 0h0.001z" />
<glyph unicode="&#xc914;" d="M870.5 116c55.87 73.617 89.5 166.78 89.5 267.799 0 0.071 0 0.141 0 0.212v-0.011c0 247.42-200.6 448-448 448s-448-200.58-448-448c0-0.028 0-0.061 0-0.095 0-101.065 33.661-194.268 90.384-269.010l-0.804 1.104-80.2-80.18c-5.792-5.791-9.375-13.792-9.375-22.63s3.583-16.839 9.375-22.63l45.24-45.24c5.791-5.792 13.792-9.375 22.63-9.375s16.839 3.583 22.63 9.375v0l80.12 80.24c73.667-55.926 166.902-89.591 268-89.591s194.333 33.665 269.106 90.395l-1.106-0.805 80.2-80.18c5.791-5.792 13.792-9.375 22.63-9.375s16.839 3.583 22.63 9.375l45.24 45.24c5.792 5.791 9.375 13.792 9.375 22.63s-3.583 16.839-9.375 22.63v0zM736 368c0-17.673-14.327-32-32-32v0h-144v-144c0-17.673-14.327-32-32-32v0h-32c-17.673 0-32 14.327-32 32v0 144h-144c-17.673 0-32 14.327-32 32v0 32c0 17.673 14.327 32 32 32v0h144v144c0 17.673 14.327 32 32 32v0h32c17.673 0 32-14.327 32-32v0-144h144c17.673 0 32-14.327 32-32v0z" />
<glyph unicode="&#xc915;" d="M704 432h-144v144c0 17.673-14.327 32-32 32v0h-32c-17.673 0-32-14.327-32-32v0-144h-144c-17.673 0-32-14.327-32-32v0-32c0-17.673 14.327-32 32-32v0h144v-144c0-17.673 14.327-32 32-32v0h32c17.673 0 32 14.327 32 32v0 144h144c17.673 0 32 14.327 32 32v0 32c0 17.673-14.327 32-32 32v0zM192 960c-106.039 0-192-85.961-192-192v0c0.16-38.139 11.555-73.585 31.042-103.237l-0.442 0.717 291.8 243.16c-34.060 31.821-79.948 51.36-130.4 51.36v0zM832 960c-50.43-0.014-96.298-19.534-130.472-51.424l0.112 0.104 291.8-243.14c19.009 28.927 30.386 64.347 30.56 102.415v0.045c0 106.039-85.961 192-192 192v0z" />
<glyph unicode="&#xc916;" d="M869.1 116c55.702 73.677 89.22 166.828 89.22 267.807 0 0.068 0 0.136 0 0.204v-0.011c0 247.42-199.82 448-446.28 448s-446.28-200.58-446.28-448c0-0.069 0-0.151 0-0.233 0-100.966 33.518-194.104 90.035-268.892l-0.815 1.126-79.9-80.12c-5.768-5.802-9.334-13.8-9.334-22.63s3.566-16.828 9.335-22.632l-0.002 0.002 45.080-45.24c5.758-5.792 13.73-9.377 22.54-9.377s16.782 3.585 22.538 9.375l0.002 0.002 79.88 80.18c73.298-55.9 166.173-89.562 266.91-89.562s193.612 33.662 267.99 90.351l-1.080-0.789 79.9-80.18c5.758-5.792 13.73-9.377 22.54-9.377s16.782 3.585 22.538 9.375l0.002 0.002 45.060 45.24c5.792 5.791 9.375 13.792 9.375 22.63s-3.583 16.839-9.375 22.63v0zM676.8 514l-192.8-242h155.54c17.613-0.080 31.86-14.376 31.86-32 0 0 0 0 0 0v0-32c0 0 0 0 0 0 0-17.624-14.247-31.92-31.852-32h-255.088c-26.454 0.074-47.87 21.536-47.87 48 0 11.394 3.97 21.861 10.602 30.093l-0.072-0.092 192.88 242h-155.54c-17.621 0.068-31.88 14.369-31.88 32 0 0 0 0 0 0v0 32c0 0 0 0 0 0 0 17.631 14.259 31.932 31.873 32h255.027c26.445-0.085 47.85-21.543 47.85-48 0-11.394-3.97-21.861-10.602-30.093l0.072 0.092z" />
<glyph unicode="&#xc917;" d="M639.48 592h-255.020c-17.621-0.068-31.88-14.369-31.88-32 0 0 0 0 0 0v0-32c0 0 0 0 0 0 0-17.631 14.259-31.932 31.873-32h155.547l-192.88-242c-6.56-8.139-10.53-18.606-10.53-30 0-26.464 21.416-47.926 47.863-48h255.027c17.613 0.080 31.86 14.376 31.86 32 0 0 0 0 0 0v0 32c0 0 0 0 0 0 0 17.624-14.247 31.92-31.852 32h-155.488l192.8 242c6.56 8.139 10.53 18.606 10.53 30 0 26.457-21.405 47.915-47.842 48h-0.008zM2 768c0.158-38.123 11.506-73.564 30.926-103.246l-0.446 0.726 290.66 243.16c-33.882 31.811-79.608 51.355-129.899 51.36h-0.001c-105.58 0-191.24-86-191.24-192zM830.76 960c-50.269-0.024-95.973-19.547-129.964-51.416l0.104 0.096 290.64-243.14c18.954 28.942 30.293 64.36 30.46 102.416v0.044c0 106-85.68 192-191.24 192z" />
<glyph unicode="&#xc918;" horiz-adv-x="896" d="M832 896h-768c-35.346 0-64-28.654-64-64v0-768c0-35.346 28.654-64 64-64v0h768c35.346 0 64 28.654 64 64v0 768c0 35.346-28.654 64-64 64v0zM448 128c-176.731 0-320 143.269-320 320s143.269 320 320 320c176.731 0 320-143.269 320-320v0c0-176.731-143.269-320-320-320v0z" />
<glyph unicode="&#xc919;" horiz-adv-x="896" d="M448 768c-176.731 0-320-143.269-320-320s143.269-320 320-320c176.731 0 320 143.269 320 320v0c0 176.731-143.269 320-320 320v0zM448 384c-35.346 0-64 28.654-64 64s28.654 64 64 64c35.346 0 64-28.654 64-64v0c0-35.346-28.654-64-64-64v0z" />
<glyph unicode="&#xc91a;" d="M960 640h-896c-0.001 0-0.002 0-0.003 0-35.346 0-64-28.654-64-64 0-2.042 0.096-4.062 0.283-6.055l-0.019 0.255 52.38-576c3.069-32.756 30.423-58.191 63.719-58.2h791.281c33.297 0.009 60.651 25.444 63.701 57.945l0.019 0.255 52.38 576c0.168 1.738 0.263 3.758 0.263 5.8 0 35.346-28.654 64-64 64-0.001 0-0.002 0-0.004 0v0zM512 14.22c-188.52 0-348.78 109.060-358.4 250.3-10.18 149.28 150.040 276.68 358.4 276.68s368.58-127.4 358.4-276.68c-9.62-141.26-169.86-250.3-358.4-250.3z" />
<glyph unicode="&#xc91b;" d="M960 912c0 26.51-21.49 48-48 48v0h-800c-26.51 0-48-21.49-48-48v0-48h896zM944 800h-864c-26.51 0-48-21.49-48-48v0-48h960v48c0 26.51-21.49 48-48 48v0zM512 541.2c-208.36 0-368.58-127.4-358.38-276.68 9.62-141.24 169.88-250.3 358.4-250.3s348.76 109.040 358.38 250.3c10.18 149.28-150.040 276.68-358.4 276.68zM512 221.080c-32.72 0-59.46 19.36-59.72 43.44s26.46 44.18 59.72 44.18 60-19.86 59.74-44.18-27.020-43.44-59.74-43.44z" />
<glyph unicode="&#xc91c;" horiz-adv-x="1280" d="M128.72 528.52c-19.933-14.7-32.72-38.093-32.72-64.473 0-0.017 0-0.033 0-0.050v0.003-112c0-17.673-14.327-32-32-32v0h-32c-17.673 0-32 14.327-32 32v0 112c0 97.202 78.798 176 176 176v0h0.9c-26.792-29.769-44.411-68.271-48.129-110.759l-0.051-0.721zM1264 896h-200.14c-6.019-6.255-12.764-11.741-20.119-16.343l-0.441-0.257c10.22-10.76 19.82-20.94 27.38-29 10.63-11.328 17.16-26.613 17.16-43.423 0-0.062 0-0.124 0-0.187v0.010-13.48l184.98 73.38c4.31 2.912 7.106 7.779 7.106 13.3 0 8.81-7.121 15.958-15.922 16h-0.004z" />
<glyph unicode="&#xc91d;" horiz-adv-x="1280" d="M1070.68 850.4c-7.56 8-17.16 18.24-27.38 29 22.12 13.68 39 34.98 44.36 61.32 0.191 0.932 0.3 2.003 0.3 3.1 0 8.929-7.232 16.168-16.159 16.18h-240.001c-138.46 0-255.8-128-255.8-256h-0.16c-127.84 0-208.4 73.56-255.32 180.54-6.44 14.7-27.22 15.52-34 1-19.262-39.706-30.52-86.366-30.52-135.655 0-0.030 0-0.060 0-0.090v0.005c0-134 102-272.5 256-301.8-193.74 0-277.5 146.6-306.78 218-47.083-35.387-77.215-91.13-77.215-153.911 0-55.298 23.377-105.136 60.789-140.171l0.107-0.099-51.26-136.78c-5.162-13.345-8.152-28.787-8.152-44.928 0-11.035 1.398-21.744 4.026-31.959l-0.194 0.887 49.7-198.82c3.596-14.003 16.095-24.191 30.977-24.22h132.003c17.671 0.003 31.995 14.329 31.995 32 0 2.756-0.348 5.43-1.003 7.982l0.048-0.222-52.66 210.52 47.62 127.18 204-44.62v-300.84c0-17.673 14.327-32 32-32v0h128c17.673 0 32 14.327 32 32v0 355.56c39.57 40.233 64 95.464 64 156.399 0 0.014 0 0.028 0 0.043v-0.002c0 0.44-0.14 0.84-0.16 1.28v204.94l32-14.22 37.8-75.4c10.753-21.11 32.324-35.317 57.213-35.317 8.562 0 16.731 1.681 24.195 4.731l-0.427-0.154 65.1 26c23.804 9.685 40.28 32.639 40.28 59.442 0 0.027 0 0.055 0 0.082v-0.004l-0.12 155.42c0 0.040 0 0.087 0 0.134 0 16.831-6.546 32.133-17.231 43.499l0.031-0.033zM959.84 768c-17.673 0-32 14.327-32 32s14.327 32 32 32c17.673 0 32-14.327 32-32v0c0-17.673-14.327-32-32-32v0z" />
<glyph unicode="&#xc91e;" horiz-adv-x="896" d="M448 960c-247.438 0-448-176.059-448-464.902 0-223.555 268.43-449.195 389.727-539.746 16.045-12.083 36.31-19.352 58.273-19.352s42.229 7.268 58.523 19.531l-0.249-0.18c121.297 90.551 389.727 316.191 389.727 539.746 0 288.844-200.563 464.902-448 464.902zM352 320h-64c-88.366 0-160 71.635-160 160v0c0 0 0 0.001 0 0.001 0 17.673 14.326 31.999 31.999 31.999 0 0 0.001 0 0.001 0h64c0.001 0 0.001 0 0.002 0 88.364 0 159.998-71.634 159.998-159.998 0-0.001 0-0.001 0-0.002v0c-0.001-17.673-14.327-31.999-32-32v0zM608 320h-64c-17.673 0.001-31.999 14.327-32 32v0c0 0.001 0 0.001 0 0.002 0 88.364 71.634 159.998 159.998 159.998 0.001 0 0.001 0 0.002 0h64c0 0 0.001 0 0.001 0 17.673 0 31.999-14.326 31.999-31.999 0 0 0-0.001 0-0.001v0c0-88.366-71.635-160-160-160v0z" />
<glyph unicode="&#xc91f;" horiz-adv-x="896" d="M224 512h-64c0 0-0.001 0-0.001 0-17.673 0-31.999-14.326-31.999-31.999 0 0 0-0.001 0-0.001v0c0-88.366 71.635-160 160-160h64c17.673 0.001 31.999 14.327 32 32v0c0 0.001 0 0.001 0 0.002 0 88.364-71.634 159.998-159.998 159.998-0.001 0-0.001 0-0.002 0v0zM736 512h-64c-0.001 0-0.001 0-0.002 0-88.364 0-159.998-71.634-159.998-159.998 0-0.001 0-0.001 0-0.002v0c0.001-17.673 14.327-31.999 32-32h64c88.366 0 160 71.635 160 160v0c0 0 0 0.001 0 0.001 0 17.673-14.326 31.999-31.999 31.999 0 0-0.001 0-0.001 0v0z" />
<glyph unicode="&#xc920;" horiz-adv-x="1152" d="M1120 704h-64c0 0-0.001 0-0.001 0-17.673 0-31.999-14.326-31.999-31.999 0 0 0-0.001 0-0.001v0-160h-64v96c0 0 0 0.001 0 0.001 0 17.673-14.326 31.999-31.999 31.999 0 0-0.001 0-0.001 0h-96v128h96c17.673 0.001 31.999 14.327 32 32v0 64c0 0 0 0.001 0 0.001 0 17.673-14.326 31.999-31.999 31.999 0 0-0.001 0-0.001 0h-64c0 0-0.001 0-0.001 0-17.673 0-31.999-14.326-31.999-31.999 0 0 0-0.001 0-0.001v0-32h-96c0 0-0.001 0-0.001 0-17.673 0-31.999-14.326-31.999-31.999 0 0 0-0.001 0-0.001v0-96h-256v96c0 0 0 0.001 0 0.001 0 17.673-14.326 31.999-31.999 31.999 0 0-0.001 0-0.001 0h-96v32c0 0 0 0.001 0 0.001 0 17.673-14.326 31.999-31.999 31.999 0 0-0.001 0-0.001 0h-64c0 0-0.001 0-0.001 0-17.673 0-31.999-14.326-31.999-31.999 0 0 0-0.001 0-0.001v0-64c0.001-17.673 14.327-31.999 32-32h96v-128h-96c0 0-0.001 0-0.001 0-17.673 0-31.999-14.326-31.999-31.999 0 0 0-0.001 0-0.001v0-96h-64v160c0 0 0 0.001 0 0.001 0 17.673-14.326 31.999-31.999 31.999 0 0-0.001 0-0.001 0h-64c0 0-0.001 0-0.001 0-17.673 0-31.999-14.326-31.999-31.999 0 0 0-0.001 0-0.001v0-256c0.001-17.673 14.327-31.999 32-32h96v-160c0.001-17.673 14.327-31.999 32-32h96v-160c0.001-17.673 14.327-31.999 32-32h192c17.673 0.001 31.999 14.327 32 32v0 64c0 0 0 0.001 0 0.001 0 17.673-14.326 31.999-31.999 31.999 0 0-0.001 0-0.001 0h-96v64h384v-64h-96c0 0-0.001 0-0.001 0-17.673 0-31.999-14.326-31.999-31.999 0 0 0-0.001 0-0.001v0-64c0.001-17.673 14.327-31.999 32-32h192c17.673 0.001 31.999 14.327 32 32v0 160h96c17.673 0.001 31.999 14.327 32 32v0 160h96c17.673 0.001 31.999 14.327 32 32v0 256c0 0 0 0.001 0 0.001 0 17.673-14.326 31.999-31.999 31.999 0 0-0.001 0-0.001 0v0zM448 320h-128v192h128zM832 320h-128v192h128z" />
<glyph unicode="&#xc921;" horiz-adv-x="1152" d="M320 320h128v192h-128zM704 512v-192h128v192z" />
<glyph unicode="&#xc922;" horiz-adv-x="896" d="M216.2 768h463.62c13.354 0 24.18 10.826 24.18 24.18 0 0.007 0 0.014 0 0.021v-0.001 79.62c0 13.354-10.826 24.18-24.18 24.18v0h-463.62c-0.006 0-0.013 0-0.020 0-13.354 0-24.18-10.826-24.18-24.18v0-79.62c0-13.365 10.835-24.2 24.2-24.2v0zM679.82 256c13.354 0 24.18 10.826 24.18 24.18 0 0.007 0 0.014 0 0.021v-0.001 79.62c0 13.354-10.826 24.18-24.18 24.18v0h-463.62c-0.006 0-0.013 0-0.020 0-13.354 0-24.18-10.826-24.18-24.18v0-79.62c0-13.365 10.835-24.2 24.2-24.2v0z" />
<glyph unicode="&#xc923;" horiz-adv-x="896" d="M864 640h-832c-17.673 0-32-14.327-32-32v0-64c0-17.673 14.327-32 32-32v0h832c17.673 0 32 14.327 32 32v0 64c0 17.673-14.327 32-32 32v0zM864 128h-832c-17.673 0-32-14.327-32-32v0-64c0-17.673 14.327-32 32-32v0h832c17.673 0 32 14.327 32 32v0 64c0 17.673-14.327 32-32 32v0z" />
<glyph unicode="&#xc924;" horiz-adv-x="896" d="M864 128h-832c-17.673 0-32-14.327-32-32v0-64c0-17.673 14.327-32 32-32v0h832c17.673 0 32 14.327 32 32v0 64c0 17.673-14.327 32-32 32v0zM864 640h-832c-17.673 0-32-14.327-32-32v0-64c0-17.673 14.327-32 32-32v0h832c17.673 0 32 14.327 32 32v0 64c0 17.673-14.327 32-32 32v0z" />
<glyph unicode="&#xc925;" horiz-adv-x="896" d="M864 384h-832c-17.673 0-32-14.327-32-32v0-64c0-17.673 14.327-32 32-32v0h832c17.673 0 32 14.327 32 32v0 64c0 17.673-14.327 32-32 32v0zM864 896h-832c-17.673 0-32-14.327-32-32v0-64c0-17.673 14.327-32 32-32v0h832c17.673 0 32 14.327 32 32v0 64c0 17.673-14.327 32-32 32v0z" />
<glyph unicode="&#xc926;" horiz-adv-x="896" d="M25.66 256h524.68c0.006 0 0.013 0 0.020 0 14.161 0 25.64 11.479 25.64 25.64 0 0.007 0 0.014 0 0.021v-0.001 76.68c0 0.006 0 0.013 0 0.020 0 14.161-11.479 25.64-25.64 25.64-0.007 0-0.014 0-0.021 0h-524.679c-0.006 0-0.013 0-0.020 0-14.161 0-25.64-11.479-25.64-25.64 0-0.007 0-0.014 0-0.021v0.001-76.68c0-0.006 0-0.013 0-0.020 0-14.161 11.479-25.64 25.64-25.64 0.007 0 0.014 0 0.021 0h-0.001zM25.66 768h524.68c0.006 0 0.013 0 0.020 0 14.161 0 25.64 11.479 25.64 25.64 0 0.007 0 0.014 0 0.021v-0.001 76.68c0 0.006 0 0.013 0 0.020 0 14.161-11.479 25.64-25.64 25.64-0.007 0-0.014 0-0.021 0h-524.679c-0.006 0-0.013 0-0.020 0-14.161 0-25.64-11.479-25.64-25.64 0-0.007 0-0.014 0-0.021v0.001-76.68c0-0.006 0-0.013 0-0.020 0-14.161 11.479-25.64 25.64-25.64 0.007 0 0.014 0 0.021 0h-0.001z" />
<glyph unicode="&#xc927;" horiz-adv-x="896" d="M864 640h-832c-17.673 0-32-14.327-32-32v0-64c0-17.673 14.327-32 32-32v0h832c17.673 0 32 14.327 32 32v0 64c0 17.673-14.327 32-32 32v0zM864 128h-832c-17.673 0-32-14.327-32-32v0-64c0-17.673 14.327-32 32-32v0h832c17.673 0 32 14.327 32 32v0 64c0 17.673-14.327 32-32 32v0z" />
<glyph unicode="&#xc928;" horiz-adv-x="896" d="M870.34 896h-524.68c-0.006 0-0.013 0-0.020 0-14.161 0-25.64-11.479-25.64-25.64 0-0.007 0-0.014 0-0.021v0.001-76.68c0-0.006 0-0.013 0-0.020 0-14.161 11.479-25.64 25.64-25.64 0.007 0 0.014 0 0.021 0h524.679c0.006 0 0.013 0 0.020 0 14.161 0 25.64 11.479 25.64 25.64 0 0.007 0 0.014 0 0.021v-0.001 76.68c0 0.006 0 0.013 0 0.020 0 14.161-11.479 25.64-25.64 25.64-0.007 0-0.014 0-0.021 0h0.001zM870.34 384h-524.68c-0.006 0-0.013 0-0.020 0-14.161 0-25.64-11.479-25.64-25.64 0-0.007 0-0.014 0-0.021v0.001-76.68c0-0.006 0-0.013 0-0.020 0-14.161 11.479-25.64 25.64-25.64 0.007 0 0.014 0 0.021 0h524.679c0.006 0 0.013 0 0.020 0 14.161 0 25.64 11.479 25.64 25.64 0 0.007 0 0.014 0 0.021v-0.001 76.68c0 0.006 0 0.013 0 0.020 0 14.161-11.479 25.64-25.64 25.64-0.007 0-0.014 0-0.021 0h0.001z" />
<glyph unicode="&#xc929;" horiz-adv-x="896" d="M32 512h832c17.673 0 32 14.327 32 32v0 64c0 17.673-14.327 32-32 32v0h-832c-17.673 0-32-14.327-32-32v0-64c0-17.673 14.327-32 32-32v0zM864 128h-832c-17.673 0-32-14.327-32-32v0-64c0-17.673 14.327-32 32-32v0h832c17.673 0 32 14.327 32 32v0 64c0 17.673-14.327 32-32 32v0z" />
<glyph unicode="&#xc92a;" horiz-adv-x="1280" d="M1056 256h-62.92l-165.62 128h228.54c17.673 0 32-14.327 32-32v0-64c0-17.673-14.327-32-32-32v0zM192 352v-64c0-17.673 14.327-32 32-32v0h350.42l-165.6 128h-184.82c-17.673 0-32-14.327-32-32v0zM1056 768c17.673 0 32 14.327 32 32v0 64c0 17.673-14.327 32-32 32v0h-832c-14.062-0.114-25.929-9.384-29.939-22.136l-0.061-0.224 136.62-105.64zM224 128c-17.673 0-32-14.327-32-32v0-64c0-17.673 14.327-32 32-32v0h681.66l-165.66 128zM1056 640h-559.76l165.62-128h394.14c17.673 0 32 14.327 32 32v0 64c0 17.673-14.327 32-32 32v0z" />
<glyph unicode="&#xc92b;" horiz-adv-x="1280" d="M1267.64 43.8l-1176.72 909.44c-5.365 4.206-12.212 6.745-19.652 6.745-10.241 0-19.358-4.81-25.215-12.295l-0.053-0.070-39.26-50.54c-4.2-5.363-6.736-12.205-6.736-19.639 0-10.236 4.806-19.35 12.286-25.208l0.070-0.053 1176.72-909.44c5.365-4.206 12.212-6.745 19.652-6.745 10.241 0 19.358 4.81 25.215 12.295l0.053 0.070 39.28 50.54c4.196 5.361 6.728 12.2 6.728 19.63 0 10.242-4.812 19.36-12.298 25.217l-0.070 0.053z" />
<glyph unicode="&#xc92c;" horiz-adv-x="896" d="M832 736c-35.305-0.102-63.898-28.695-64-63.99v-144.010c0-8.837-7.163-16-16-16v0h-32c-8.837 0-16 7.163-16 16v0 304c0 35.346-28.654 64-64 64s-64-28.654-64-64v0-304c0-8.837-7.163-16-16-16v0h-32c-8.837 0-16 7.163-16 16v0 368c0 35.346-28.654 64-64 64s-64-28.654-64-64v0-368c0-8.837-7.163-16-16-16v0h-32c-8.837 0-16 7.163-16 16v0 304c0 35.346-28.654 64-64 64s-64-28.654-64-64v0-482l-47.2 64.98c-14.716 20.085-38.217 32.981-64.73 32.981-44.189 0-80.011-35.822-80.011-80.011 0-17.676 5.732-34.013 15.438-47.254l-0.157 0.224 251.22-345.32c17.655-24.074 45.815-39.543 77.591-39.6h395.249c0.020 0 0.043 0 0.066 0 45.188 0 83.073 31.267 93.201 73.346l0.133 0.654 53 225.36c6.075 25.277 9.769 54.415 10.197 84.344l0.003 0.296v352c-0.102 35.305-28.695 63.898-63.99 64h-0.010zM352 384c17.673 0 32-14.327 32-32s-14.327-32-32-32c-17.673 0-32 14.327-32 32v0c0 17.673 14.327 32 32 32v0zM352 128.16c-17.673 0-32 14.327-32 32s14.327 32 32 32c17.673 0 32-14.327 32-32v0c0-17.673-14.327-32-32-32v0zM480 64c-17.673 0-32 14.327-32 32s14.327 32 32 32c17.673 0 32-14.327 32-32v0c0-17.673-14.327-32-32-32v0zM480 256.14c-17.673 0-32 14.327-32 32s14.327 32 32 32c17.673 0 32-14.327 32-32v0c0-17.673-14.327-32-32-32v0zM608 192c-17.673 0-32 14.327-32 32s14.327 32 32 32c17.673 0 32-14.327 32-32v0c0-17.673-14.327-32-32-32v0zM672 64.18c-17.673 0-32 14.327-32 32s14.327 32 32 32c17.673 0 32-14.327 32-32v0c0-17.673-14.327-32-32-32v0zM736 320c-17.673 0-32 14.327-32 32s14.327 32 32 32c17.673 0 32-14.327 32-32v0c0-17.673-14.327-32-32-32v0z" />
<glyph unicode="&#xc92d;" horiz-adv-x="896" d="M352 384c-17.673 0-32-14.327-32-32s14.327-32 32-32c17.673 0 32 14.327 32 32v0c0 17.673-14.327 32-32 32v0zM480 128c-17.673 0-32-14.327-32-32s14.327-32 32-32c17.673 0 32 14.327 32 32v0c0 17.673-14.327 32-32 32v0zM608 256c-17.673 0-32-14.327-32-32s14.327-32 32-32c17.673 0 32 14.327 32 32v0c0 17.673-14.327 32-32 32v0zM736 384c-17.673 0-32-14.327-32-32s14.327-32 32-32c17.673 0 32 14.327 32 32v0c0 17.673-14.327 32-32 32v0z" />
<glyph unicode="&#xc92e;" horiz-adv-x="1280" d="M928 256c-88.366 0-160-71.634-160-160s71.634-160 160-160c88.366 0 160 71.634 160 160v0c0 88.366-71.634 160-160 160v0zM352 256c-88.366 0-160-71.634-160-160s71.634-160 160-160c88.366 0 160 71.634 160 160v0c0 88.366-71.634 160-160 160v0zM592 704h-112v112c0 8.837-7.163 16-16 16v0h-96c-8.837 0-16-7.163-16-16v0-112h-112c-8.837 0-16-7.163-16-16v0-96c0-8.837 7.163-16 16-16v0h112v-112c0-8.837 7.163-16 16-16v0h96c8.837 0 16 7.163 16 16v0 112h112c8.837 0 16 7.163 16 16v0 96c0 8.837-7.163 16-16 16v0z" />
<glyph unicode="&#xc92f;" horiz-adv-x="1280" d="M1248 256h-32v216.2c-0.047 26.491-10.816 50.457-28.198 67.798l-199.802 199.802c-17.343 17.384-41.309 28.153-67.791 28.2h-88.209v96c0 53.019-42.981 96-96 96v0h-640c-53.019 0-96-42.981-96-96v0-640c0-53.019 42.981-96 96-96v0h36.32c15.68 108.14 107.24 192 219.68 192s205.080-83.72 220.76-192h134.48c15.7 108.28 108.2 192 220.76 192s204-83.86 219.68-192h100.32c17.673 0 32 14.327 32 32v0 64c0 17.673-14.327 32-32 32v0zM608 592c0-8.837-7.163-16-16-16v0h-112v-112c0-8.837-7.163-16-16-16v0h-96c-8.837 0-16 7.163-16 16v0 112h-112c-8.837 0-16 7.163-16 16v0 96c0 8.837 7.163 16 16 16v0h112v112c0 8.837 7.163 16 16 16v0h96c8.837 0 16-7.163 16-16v0-112h112c8.837 0 16-7.163 16-16v0zM1120 448h-288v224h88.2l199.8-199.8z" />
<glyph unicode="&#xc930;" horiz-adv-x="1280" d="M1276.28 505.86l-88.92 178.62c-5.978 11.615-17.884 19.422-31.614 19.422-5.902 0-11.468-1.443-16.362-3.995l0.196 0.093-132.82-66.98-185.6 17.32c-75.86 0-135.86-43.1-164-102.14-17.2-36 10.36-76.48 47.22-76.48-36.94 0-64.38-40.52-47.22-76.46 28.74-60.46 86-101.58 171.14-101.58-16.53-6.029-35.612-9.516-55.508-9.516-26.948 0-52.402 6.396-74.928 17.752l0.956-0.437c-6.82 3.373-14.85 5.346-23.34 5.346-29.617 0-53.626-24.009-53.626-53.626 0-21.126 12.217-39.399 29.971-48.14l0.315-0.14c58.74-28.62 124-33.8 176.16-22.32-25.33-15.507-55.2-26.338-87.168-30.48l-1.132-0.12c-26.324-3.198-46.52-25.409-46.52-52.336 0-2.605 0.189-5.165 0.554-7.668l-0.034 0.285c4.36-34.98 39.42-51.36 59.46-46.32 56.12 7.097 106.486 27.166 149.47 57.099l-1.090-0.719c-18.862-27.173-40.306-50.662-64.478-71.015l-0.542-0.445c-11.531-9.862-18.793-24.427-18.793-40.687 0-29.514 23.926-53.44 53.44-53.44 12.574 0 24.134 4.343 33.262 11.61l-0.109-0.084c87.012 72.055 145.869 175.449 159.191 292.659l0.189 2.041 82.24 149.020 116.14 66.42c10.658 6.511 17.664 18.081 17.664 31.287 0 5.883-1.39 11.441-3.86 16.364l0.096-0.211zM817.82 400.38c-0.042 0-0.092 0-0.142 0-28.246 0-52.647 16.461-64.133 40.314l-0.185 0.426c-8.43 17.862-26.056 30.124-46.606 30.698l-0.074 0.002c20.624 0.576 38.25 12.838 46.543 30.377l0.137 0.323c11.671 24.279 36.072 40.74 64.318 40.74 0.050 0 0.1 0 0.15 0h-0.008c35.52 0 71.14-28.4 71.14-71.44v-0.44c-0.046-39.222-31.852-71-71.080-71-0.021 0-0.042 0-0.063 0h0.003z" />
<glyph unicode="&#xc931;" horiz-adv-x="1280" d="M627.78 690.94c-58.74 28.62-124 33.8-176.16 22.32 25.342 15.583 55.24 26.464 87.249 30.62l1.131 0.12c25.782 4.109 45.251 26.185 45.251 52.809 0 29.514-23.926 53.44-53.44 53.44-1.814 0-3.607-0.090-5.374-0.267l0.223 0.018c-56.118-7.099-106.482-27.16-149.472-57.080l1.092 0.72c18.868 27.162 40.31 50.644 64.477 70.995l0.543 0.445c11.935 9.878 19.481 24.694 19.481 41.272 0 12.987-4.631 24.892-12.331 34.155l0.070-0.087c-9.772 11.99-24.541 19.586-41.083 19.586-12.955 0-24.822-4.659-34.017-12.392l0.081 0.066c-87.059-72.029-145.958-175.419-159.311-292.636l-0.189-2.044-82.24-149-116.14-66.44c-10.658-6.511-17.664-18.081-17.664-31.287 0-5.883 1.39-11.441 3.86-16.364l-0.096 0.211 88.92-178.6c5.964-11.659 17.893-19.502 31.654-19.502 5.886 0 11.438 1.435 16.323 3.975l-0.197-0.093 132.82 66.96s187.82-17.3 188.94-17.3c70.527 0.38 131.351 41.534 160.135 101.073l0.465 1.067c17.18 36-10.38 76.46-47.24 76.46 36.94 0 64.38 40.52 47.24 76.46-28.74 60.46-86 101.58-171.16 101.58 16.524 6.028 35.6 9.514 55.49 9.514 26.956 0 52.417-6.403 74.944-17.771l-0.954 0.437c6.82-3.373 14.85-5.346 23.34-5.346 29.617 0 53.626 24.009 53.626 53.626 0 21.126-12.217 39.399-29.971 48.14l-0.315 0.14zM462.18 495.6c0.042 0 0.092 0 0.142 0 28.246 0 52.647-16.461 64.133-40.314l0.185-0.426c8.43-17.862 26.056-30.124 46.606-30.698l0.074-0.002c-20.624-0.576-38.25-12.838-46.543-30.377l-0.137-0.323c-11.682-24.28-36.090-40.74-64.343-40.74-0.041 0-0.082 0-0.124 0h0.006c-35.52 0-71.14 28.4-71.14 71.44v0.44c0.046 39.222 31.852 71 71.080 71 0.021 0 0.042 0 0.063 0h-0.003z" />
<glyph unicode="&#xc932;" d="M642 154c17.673 0 32 14.327 32 32s-14.327 32-32 32c-17.673 0-32-14.327-32-32v0c0-17.673 14.327-32 32-32v0zM514 410c17.673 0 32 14.327 32 32v0h-64c0-17.673 14.327-32 32-32v0zM450 218c17.673 0 32 14.327 32 32s-14.327 32-32 32c-17.673 0-32-14.327-32-32v0c0-17.673 14.327-32 32-32v0zM514 346c-17.673 0-32-14.327-32-32s14.327-32 32-32c17.673 0 32 14.327 32 32v0c0 17.673-14.327 32-32 32v0zM514 154c17.673 0 32 14.327 32 32s-14.327 32-32 32c-17.673 0-32-14.327-32-32v0c0-17.673 14.327-32 32-32v0zM578 218c17.673 0 32 14.327 32 32s-14.327 32-32 32c-17.673 0-32-14.327-32-32v0c0-17.673 14.327-32 32-32v0zM706 218c17.673 0 32 14.327 32 32s-14.327 32-32 32c-17.673 0-32-14.327-32-32v0c0-17.673 14.327-32 32-32v0zM770 154c17.673 0 32 14.327 32 32s-14.327 32-32 32c-17.673 0-32-14.327-32-32v0c0-17.673 14.327-32 32-32v0zM642 410c17.673 0 32 14.327 32 32v0h-64c0-17.673 14.327-32 32-32v0zM642 346c-17.673 0-32-14.327-32-32s14.327-32 32-32c17.673 0 32 14.327 32 32v0c0 17.673-14.327 32-32 32v0zM706 346c17.673 0 32 14.327 32 32s-14.327 32-32 32c-17.673 0-32-14.327-32-32v0c0-17.673 14.327-32 32-32v0zM578 346c17.673 0 32 14.327 32 32s-14.327 32-32 32c-17.673 0-32-14.327-32-32v0c0-17.673 14.327-32 32-32v0zM258 346c-17.673 0-32-14.327-32-32s14.327-32 32-32c17.673 0 32 14.327 32 32v0c0 17.673-14.327 32-32 32v0zM194 282c-17.673 0-32-14.327-32-32s14.327-32 32-32c17.673 0 32 14.327 32 32v0c0 17.673-14.327 32-32 32v0zM770 346c-17.673 0-32-14.327-32-32s14.327-32 32-32c17.673 0 32 14.327 32 32v0c0 17.673-14.327 32-32 32v0zM258 154c17.673 0 32 14.327 32 32s-14.327 32-32 32c-17.673 0-32-14.327-32-32v0c0-17.673 14.327-32 32-32v0zM834 346c17.673 0 32 14.327 32 32s-14.327 32-32 32c-17.673 0-32-14.327-32-32v0c0-17.673 14.327-32 32-32v0zM386 410c17.673 0 32 14.327 32 32v0h-64c0-17.673 14.327-32 32-32v0zM322 346c17.673 0 32 14.327 32 32s-14.327 32-32 32c-17.673 0-32-14.327-32-32v0c0-17.673 14.327-32 32-32v0zM450 346c17.673 0 32 14.327 32 32s-14.327 32-32 32c-17.673 0-32-14.327-32-32v0c0-17.673 14.327-32 32-32v0zM386 346c-17.673 0-32-14.327-32-32s14.327-32 32-32c17.673 0 32 14.327 32 32v0c0 17.673-14.327 32-32 32v0zM386 154c17.673 0 32 14.327 32 32s-14.327 32-32 32c-17.673 0-32-14.327-32-32v0c0-17.673 14.327-32 32-32v0zM322 218c17.673 0 32 14.327 32 32s-14.327 32-32 32c-17.673 0-32-14.327-32-32v0c0-17.673 14.327-32 32-32v0zM258 410c17.673 0 32 14.327 32 32v0h-64c0-17.673 14.327-32 32-32v0zM706 154c-17.673 0-32-14.327-32-32s14.327-32 32-32c17.673 0 32 14.327 32 32v0c0 17.673-14.327 32-32 32v0zM642 90c-17.673 0-32-14.327-32-32v0h64c0 17.673-14.327 32-32 32v0zM514 90c-17.673 0-32-14.327-32-32v0h64c0 17.673-14.327 32-32 32v0zM578 154c-17.673 0-32-14.327-32-32s14.327-32 32-32c17.673 0 32 14.327 32 32v0c0 17.673-14.327 32-32 32v0zM770 90c-17.673 0-32-14.327-32-32v0h64c0 17.673-14.327 32-32 32v0zM834 154c-17.673 0-32-14.327-32-32s14.327-32 32-32c17.673 0 32 14.327 32 32v0c0 17.673-14.327 32-32 32v0zM866 442c0-17.673 14.327-32 32-32v0 32zM450 154c-17.673 0-32-14.327-32-32s14.327-32 32-32c17.673 0 32 14.327 32 32v0c0 17.673-14.327 32-32 32v0zM866 314c0-17.673 14.327-32 32-32v0 64c-17.673 0-32-14.327-32-32v0zM866 186c0-17.673 14.327-32 32-32v0 64c-17.673 0-32-14.327-32-32v0zM770 410c17.673 0 32 14.327 32 32v0h-64c0-17.673 14.327-32 32-32v0zM866 58h32v32c-17.673 0-32-14.327-32-32v0zM162 442h-32v-32c17.673 0 32 14.327 32 32v0zM162 314c0 17.673-14.327 32-32 32v0-64c17.673 0 32 14.327 32 32v0zM834 218c17.673 0 32 14.327 32 32s-14.327 32-32 32c-17.673 0-32-14.327-32-32v0c0-17.673 14.327-32 32-32v0zM194 346c17.673 0 32 14.327 32 32s-14.327 32-32 32c-17.673 0-32-14.327-32-32v0c0-17.673 14.327-32 32-32v0zM162 186c0 17.673-14.327 32-32 32v0-64c17.673 0 32 14.327 32 32v0zM258 90c-17.673 0-32-14.327-32-32v0h64c0 17.673-14.327 32-32 32v0zM130 90v-32h32c0 17.673-14.327 32-32 32v0zM386 90c-17.673 0-32-14.327-32-32v0h64c0 17.673-14.327 32-32 32v0zM322 154c-17.673 0-32-14.327-32-32s14.327-32 32-32c17.673 0 32 14.327 32 32v0c0 17.673-14.327 32-32 32v0zM194 154c-17.673 0-32-14.327-32-32s14.327-32 32-32c17.673 0 32 14.327 32 32v0c0 17.673-14.327 32-32 32v0zM514 858c53.78 0 108-29.58 152.5-64h140.5c-49.5 54.58-161.98 160-293 160s-243.5-105.42-293-160h140.5c44.5 34.42 98.74 64 152.5 64z" />
<glyph unicode="&#xc933;" d="M930 794h-832c-53.019 0-96-42.981-96-96v0-672c0-53.019 42.981-96 96-96v0h832c53.019 0 96 42.981 96 96v0 672c0 53.019-42.981 96-96 96v0zM690 666c26.51 0 48-21.49 48-48s-21.49-48-48-48c-26.51 0-48 21.49-48 48v0c0 26.51 21.49 48 48 48v0zM338 666c26.51 0 48-21.49 48-48s-21.49-48-48-48c-26.51 0-48 21.49-48 48v0c0 26.51 21.49 48 48 48v0zM178 666c26.51 0 48-21.49 48-48s-21.49-48-48-48c-26.51 0-48 21.49-48 48v0c0 26.51 21.49 48 48 48v0zM898 58h-768v384h768zM850 570c-26.51 0-48 21.49-48 48s21.49 48 48 48c26.51 0 48-21.49 48-48v0c0-26.51-21.49-48-48-48v0z" />
<glyph unicode="&#xc934;" horiz-adv-x="1152" d="M1021.24 774.74l-190.64-152.56c0.764-4.181 1.268-9.070 1.397-14.054l0.003-0.126c0-53.019-42.981-96-96-96s-96 42.981-96 96v0c0.128 5.112 0.639 10.008 1.508 14.78l-0.088-0.58-190.66 152.54c-10.118-4.264-21.88-6.742-34.22-6.742-8.943 0-17.582 1.301-25.738 3.725l0.639-0.163-203-203c2-7.308 3.149-15.7 3.149-24.36 0-52.909-42.891-95.8-95.8-95.8s-95.8 42.891-95.8 95.8c0 52.909 42.891 95.8 95.8 95.8 0.074 0 0.148 0 0.223 0h-0.012c8.791-0.127 17.229-1.418 25.236-3.727l-0.676 0.167 203 203c-2.142 7.331-3.433 15.769-3.559 24.489l-0.001 0.071c0 53.019 42.981 96 96 96s96-42.981 96-96v0c-0.128-5.112-0.639-10.008-1.508-14.78l0.088 0.58 190.64-152.52c10.287 4.264 22.234 6.74 34.76 6.74s24.473-2.476 35.379-6.966l-0.619 0.226 190.68 152.54c-0.77 4.176-1.281 9.065-1.417 14.047l-0.003 0.133c-0.002 0.213-0.003 0.466-0.003 0.718 0 53.417 43.303 96.72 96.72 96.72s96.72-43.303 96.72-96.72c0-53.417-43.303-96.72-96.72-96.72-12.772 0-24.965 2.476-36.127 6.973l0.65-0.231z" />
<glyph unicode="&#xc935;" horiz-adv-x="1152" d="M800 320h-128c-17.673 0-32-14.327-32-32v0-320c0-17.673 14.327-32 32-32v0h128c17.673 0 32 14.327 32 32v0 320c0 17.673-14.327 32-32 32v0zM1120 576h-128c-17.673 0-32-14.327-32-32v0-576c0-17.673 14.327-32 32-32v0h128c17.673 0 32 14.327 32 32v0 576c0 17.673-14.327 32-32 32v0zM480 576h-128c-17.673 0-32-14.327-32-32v0-576c0-17.673 14.327-32 32-32v0h128c17.673 0 32 14.327 32 32v0 576c0 17.673-14.327 32-32 32v0zM160 256h-128c-17.673 0-32-14.327-32-32v0-256c0-17.673 14.327-32 32-32v0h128c17.673 0 32 14.327 32 32v0 256c0 17.673-14.327 32-32 32v0z" />
<glyph unicode="&#xc936;" horiz-adv-x="1152" d="M744 576h-104v10.94c75.21 27.154 128 97.922 128 181.019 0 0.014 0 0.029 0 0.043v-0.002c0 104.44-84.72 190.5-189.16 192-0.917 0.016-1.998 0.025-3.082 0.025-106.039 0-192-85.961-192-192 0-83.188 52.905-154.019 126.904-180.684l1.338-0.421v-10.92h-104c-13.255 0-24-10.745-24-24v0-80c0-13.255 10.745-24 24-24v0h336c13.255 0 24 10.745 24 24v0 80c0 13.255-10.745 24-24 24v0zM576 832c35.346 0 64-28.654 64-64s-28.654-64-64-64c-35.346 0-64 28.654-64 64v0c0 35.346 28.654 64 64 64v0z" />
<glyph unicode="&#xc937;" horiz-adv-x="1152" d="M1128 256h-65.020c-43.72-205.24-273.76-320-486.98-320-212.82 0-443.16 114.54-486.92 320h-65.080c-0.018 0-0.038 0-0.059 0-13.255 0-24 10.745-24 24 0 6.632 2.69 12.636 7.039 16.98v0l134.52 134c4.361 4.327 10.368 7.001 17 7.001s12.639-2.674 17.002-7.003l-0.002 0.002 134.52-134c4.349-4.344 7.039-10.348 7.039-16.98 0-13.24-10.722-23.977-23.957-24h-70.522c40.74-108.68 170.94-173.24 289.22-188v316h128.44v-316c118.72 14.86 248.52 79.4 289.24 188h-70.52c-13.254 0.001-23.999 10.746-23.999 24 0 6.632 2.69 12.636 7.039 16.98v0l134.52 134c4.361 4.327 10.368 7.001 17 7.001s12.639-2.674 17.002-7.003l-0.002 0.002 134.52-134c4.349-4.344 7.039-10.348 7.039-16.98 0-13.255-10.745-24-24-24-0.028 0-0.056 0-0.083 0h0.004z" />
<glyph unicode="&#xc938;" horiz-adv-x="1152" d="M768 832c0-4.6-6.6-12.2-18.2-20.6 12.882-15.654 23.997-33.499 32.605-52.713l0.595-1.487c30.48 21 49 46.8 49 74.8 0 70.6-114.6 128-256 128s-256-57.4-256-128c0-28 18.6-53.8 49-74.8 8.956 20.736 20.094 38.608 33.473 54.534l-0.273-0.334c-11.6 8.2-18.2 15.8-18.2 20.6 0 16 68 64 192 64s192-48 192-64zM1143.54 53.8l-76.34 157.2c-6.246 12.591-9.901 27.419-9.901 43.1s3.655 30.509 10.159 43.678l-0.258-0.578c9.58 19.6 17.38 33.4 23.78 44.2 19.020 33.2 29.020 53 29.020 106.6 0 102.2-93.74 192-200.7 192-51.957-0.203-98.86-21.677-132.482-56.161l-0.038-0.039-145.080-146.54c52.875-17.987 95.191-55.185 119.457-103.077l0.543-1.183 198.3-397h111.2c28.71 0.019 53.906 15.050 68.164 37.667l0.196 0.333c7.803 12.346 12.434 27.373 12.434 43.481 0 13.226-3.122 25.723-8.67 36.794l0.215-0.475zM232.68 640c-106.96 0-200.68-89.8-200.68-192 0-53.6 10-73.4 29.040-106.6 6.4-10.8 14.2-24.6 23.78-44.2 6.246-12.591 9.901-27.419 9.901-43.1s-3.655-30.509-10.159-43.678l0.258 0.578-76.36-157.2c-5.327-10.592-8.445-23.082-8.445-36.301 0-16.115 4.635-31.148 12.645-43.838l-0.2 0.339c14.451-22.945 39.637-37.974 68.336-38h111.204l198.44 397c24.809 49.075 67.124 86.273 118.541 103.827l1.459 0.433-145.24 146.54c-33.66 34.523-80.563 55.997-132.482 56.2h-0.038z" />
<glyph unicode="&#xc939;" horiz-adv-x="1152" d="M576 512c88.366 0 160 71.634 160 160s-71.634 160-160 160c-88.366 0-160-71.634-160-160v0c0-88.366 71.634-160 160-160v0zM762.8 332.92c-35.205 68.794-105.599 115.066-186.8 115.066s-151.595-46.272-186.251-113.887l-0.549-1.179-197.2-396.92h768z" />
<glyph unicode="&#xc93a;" horiz-adv-x="640" d="M286 448l-271.9 271.26c-8.709 8.623-14.101 20.582-14.101 33.8s5.392 25.177 14.097 33.796l45.184 45.144c8.668 8.685 20.652 14.057 33.89 14.057s25.222-5.373 33.889-14.057l0.001-0.001 192.74-192.26 192.74 192.26c8.668 8.685 20.652 14.057 33.89 14.057s25.222-5.373 33.889-14.057l0.001-0.001 45.68-44.94c8.709-8.623 14.101-20.582 14.101-33.8s-5.392-25.177-14.097-33.796l-0.004-0.004-272-271.22c-8.688-8.811-20.756-14.268-34.099-14.268-13.244 0-25.232 5.377-33.9 14.067l-0.001 0.001z" />
<glyph unicode="&#xc93b;" horiz-adv-x="640" d="M286 64.22l-271.9 271.1c-8.707 8.62-14.099 20.575-14.099 33.79s5.392 25.17 14.095 33.786l0.004 0.004 45.38 45.1c8.668 8.685 20.652 14.057 33.89 14.057s25.222-5.373 33.889-14.057l0.001-0.001 192.74-192.22 192.94 192c8.668 8.685 20.652 14.057 33.89 14.057s25.222-5.373 33.889-14.057l0.001-0.001 45.28-45.080c8.707-8.62 14.099-20.575 14.099-33.79s-5.392-25.17-14.095-33.786l-0.004-0.004-272-271.12c-8.681-8.656-20.661-14.008-33.89-14.008-13.339 0-25.407 5.441-34.106 14.224l-0.004 0.004z" />
<glyph unicode="&#xc93c;" horiz-adv-x="896" d="M448 482l271.22 272c8.623 8.709 20.582 14.101 33.8 14.101s25.177-5.392 33.796-14.097l0.004-0.004 45.18-45.28c8.685-8.668 14.057-20.652 14.057-33.89s-5.373-25.222-14.057-33.889l-0.001-0.001-192.32-192.74 192.32-192.74c8.685-8.668 14.057-20.652 14.057-33.89s-5.373-25.222-14.057-33.889l-0.001-0.001-44.94-45.68c-8.623-8.709-20.582-14.101-33.8-14.101s-25.177 5.392-33.796 14.097l-0.004 0.004-271.22 272c-8.811 8.688-14.268 20.756-14.268 34.099 0 13.244 5.377 25.232 14.067 33.9l0.001 0.001z" />
<glyph unicode="&#xc93d;" horiz-adv-x="896" d="M64.22 482l271.1 272c8.62 8.707 20.575 14.099 33.79 14.099s25.17-5.392 33.786-14.095l0.004-0.004 45.1-45.48c8.685-8.668 14.057-20.652 14.057-33.89s-5.373-25.222-14.057-33.889l-0.001-0.001-192.22-192.74 192-192.94c8.685-8.668 14.057-20.652 14.057-33.89s-5.373-25.222-14.057-33.889l-0.001-0.001-45.080-45.28c-8.62-8.707-20.575-14.099-33.79-14.099s-25.17 5.392-33.786 14.095l-0.004 0.004-271.12 272c-8.656 8.681-14.008 20.661-14.008 33.89 0 13.339 5.441 25.407 14.224 34.106l0.004 0.004z" />
<glyph unicode="&#xc93e;" horiz-adv-x="896" d="M448 414l-271.26-272c-8.623-8.709-20.582-14.101-33.8-14.101s-25.177 5.392-33.796 14.097l-0.004 0.004-45.14 45.28c-8.685 8.668-14.057 20.652-14.057 33.89s5.373 25.222 14.057 33.889l0.001 0.001 192.26 192.74-192.26 192.74c-8.685 8.668-14.057 20.652-14.057 33.89s5.373 25.222 14.057 33.889l0.001 0.001 44.88 45.58c8.623 8.709 20.582 14.101 33.8 14.101s25.177-5.392 33.796-14.097l0.004-0.004 271.28-271.9c8.811-8.688 14.268-20.756 14.268-34.099 0-13.244-5.377-25.232-14.067-33.9l-0.001-0.001z" />
<glyph unicode="&#xc93f;" horiz-adv-x="896" d="M831.78 414l-271.1-272c-8.62-8.707-20.575-14.099-33.79-14.099s-25.17 5.392-33.786 14.095l-0.004 0.004-45.1 45.48c-8.685 8.668-14.057 20.652-14.057 33.89s5.373 25.222 14.057 33.889l0.001 0.001 192.22 192.74-192 192.94c-8.685 8.668-14.057 20.652-14.057 33.89s5.373 25.222 14.057 33.889l0.001 0.001 45.040 45.18c8.62 8.707 20.575 14.099 33.79 14.099s25.17-5.392 33.786-14.095l0.004-0.004 271.16-271.9c8.656-8.681 14.008-20.661 14.008-33.89 0-13.339-5.441-25.407-14.224-34.106l-0.004-0.004z" />
<glyph unicode="&#xc940;" horiz-adv-x="640" d="M354 448l272-271.26c8.709-8.623 14.101-20.582 14.101-33.8s-5.392-25.177-14.097-33.796l-0.004-0.004-45.28-45.14c-8.668-8.685-20.652-14.057-33.89-14.057s-25.222 5.373-33.889 14.057l-0.001 0.001-192.74 192.32-192.74-192.32c-8.668-8.685-20.652-14.057-33.89-14.057s-25.222 5.373-33.889 14.057l-0.001 0.001-45.58 44.94c-8.709 8.623-14.101 20.582-14.101 33.8s5.392 25.177 14.097 33.796l0.004 0.004 271.9 271.22c8.688 8.811 20.756 14.268 34.099 14.268 13.244 0 25.232-5.377 33.9-14.067l0.001-0.001z" />
<glyph unicode="&#xc941;" horiz-adv-x="640" d="M354 831.78l272-271.1c8.707-8.62 14.099-20.575 14.099-33.79s-5.392-25.17-14.095-33.786l-0.004-0.004-45.48-45.1c-8.668-8.685-20.652-14.057-33.89-14.057s-25.222 5.373-33.889 14.057l-0.001 0.001-192.74 192.22-192.94-192c-8.668-8.685-20.652-14.057-33.89-14.057s-25.222 5.373-33.889 14.057l-0.001 0.001-45.18 45.080c-8.707 8.62-14.099 20.575-14.099 33.79s5.392 25.17 14.095 33.786l0.004 0.004 271.9 271.12c8.681 8.656 20.661 14.008 33.89 14.008 13.339 0 25.407-5.441 34.106-14.224l0.004-0.004z" />
<glyph unicode="&#xc942;" horiz-adv-x="640" d="M320 447.72l-113.020-112.94-192.88 192.3c-8.708 8.62-14.099 20.575-14.099 33.79 0 13.036 5.247 24.846 13.743 33.434l0.356 0.356 45.18 45.020c8.664 8.661 20.631 14.017 33.85 14.017s25.186-5.357 33.85-14.018v0z" />
<glyph unicode="&#xc943;" horiz-adv-x="640" d="M626 594.86l-45.58 45.14c-8.664 8.661-20.631 14.017-33.85 14.017s-25.186-5.357-33.85-14.018v0l-305.78-305.22 79.18-78.9c8.669-8.585 20.6-13.889 33.77-13.889 13.329 0 25.389 5.433 34.087 14.205l0.003 0.003 272.38 271.42c8.494 8.587 13.741 20.401 13.741 33.44 0 13.218-5.392 25.177-14.097 33.796l-0.004 0.004z" />
<glyph unicode="&#xc944;" horiz-adv-x="512" d="M447.66 255.12c8.638-8.678 13.978-20.645 13.978-33.86s-5.34-25.182-13.98-33.862l0.002 0.002-45.38-45.76c-8.581-8.491-20.388-13.738-33.42-13.738-13.211 0-25.163 5.391-33.776 14.093l-0.004 0.004-192.3 193 112.94 113z" />
<glyph unicode="&#xc945;" horiz-adv-x="512" d="M335.62 754.26l-0.34-0.36-271.060-271.9c-8.782-8.702-14.219-20.766-14.219-34.1 0-13.165 5.3-25.092 13.883-33.764l-0.004 0.004 0.12-0.14 78.78-79.020 305.22 305.7c8.665 8.659 14.024 20.623 14.024 33.84s-5.36 25.181-14.024 33.84v0l-45.080 45.48c-8.626 8.744-20.605 14.16-33.85 14.16-13.016 0-24.81-5.231-33.395-13.705l0.005 0.005z" />
<glyph unicode="&#xc946;" horiz-adv-x="512" d="M256.28 448l112.94-112.98-192.3-193.020c-8.617-8.706-20.569-14.098-33.78-14.098-13.032 0-24.839 5.246-33.424 13.742l-0.356 0.356-45.020 45.36c-8.665 8.659-14.024 20.623-14.024 33.84s5.36 25.181 14.024 33.84v0z" />
<glyph unicode="&#xc947;" horiz-adv-x="512" d="M109.16 753.86l-45.16-45.48c-8.665-8.659-14.024-20.623-14.024-33.84s5.36-25.181 14.024-33.84v0l305.22-305.7 78.9 79.12c8.591 8.67 13.899 20.605 13.899 33.78 0 13.334-5.437 25.398-14.215 34.096l-0.004 0.004-271.4 272.36c-8.583 8.47-20.381 13.701-33.4 13.701-13.238 0-25.213-5.409-33.835-14.137l-0.005-0.005z" />
<glyph unicode="&#xc948;" horiz-adv-x="640" d="M127.040 256.32c-8.664-8.661-20.631-14.017-33.85-14.017s-25.186 5.357-33.85 14.018v0l-45.6 45.38c-8.493 8.584-13.739 20.394-13.739 33.43 0 13.215 5.392 25.17 14.095 33.786l0.004 0.004 192.84 192.3 113.060-112.94z" />
<glyph unicode="&#xc949;" horiz-adv-x="640" d="M626.26 368.38l-0.36 0.34-271.9 271.060c-8.703 8.787-20.771 14.228-34.11 14.228-13.23 0-25.209-5.352-33.892-14.009l-79.019-78.779 305.68-305.22c8.664-8.661 20.631-14.017 33.85-14.017s25.186 5.357 33.85 14.018v0l45.64 45.14c8.679 8.618 14.051 20.557 14.051 33.75 0 13.064-5.267 24.897-13.794 33.493l0.003-0.003z" />
<glyph unicode="&#xc94a;" horiz-adv-x="992" d="M496 944c-274 0-496-222-496-496s222-496 496-496 496 222 496 496-222 496-496 496zM272 480c0 0.025 0 0.055 0 0.085 0 18.466 7.852 35.097 20.399 46.738l0.041 0.037-61.64 18.48c-13.305 4.084-22.811 16.262-22.811 30.66 0 17.679 14.332 32.011 32.011 32.011 3.281 0 6.447-0.494 9.427-1.411l-0.227 0.060 160-48c13.318-4.072 22.837-16.254 22.837-30.66 0-17.673-14.327-32-32-32-0.013 0-0.026 0-0.039 0h-1.998c1.27-4.764 2-10.234 2-15.874 0-35.346-28.654-64-64-64-35.302 0-63.928 28.582-64 63.867v0.007zM608.64 171.9c-55.86 66.52-169.18 66.52-225.24 0-27.14-32.46-76.76 8.36-49.44 40.82 39.117 46.198 97.157 75.329 162 75.329s122.883-29.131 161.745-75.020l0.255-0.309c27.66-32.86-22.38-72.9-49.32-40.82zM763.2 545.34l-63.2-18.94c12.304-11.687 19.958-28.168 19.958-46.436 0-35.346-28.654-64-64-64s-64 28.654-64 64c0 5.699 0.745 11.224 2.143 16.483l-0.101-0.447c-17.669 0.006-31.99 14.33-31.99 32 0 14.381 9.487 26.547 22.543 30.58l0.227 0.060 160 48c2.753 0.857 5.919 1.351 9.2 1.351 17.674 0 32.001-14.327 32.001-32.001 0-14.393-9.502-26.566-22.574-30.59l-0.227-0.060z" />
<glyph unicode="&#xc94b;" horiz-adv-x="992" d="M409.2 558.66l-160 48c-2.753 0.857-5.919 1.351-9.2 1.351-17.679 0-32.011-14.332-32.011-32.011 0-14.398 9.506-26.576 22.584-30.6l0.227-0.060 61.64-18.48c-12.571-11.718-20.408-28.373-20.408-46.859 0-35.346 28.654-64 64-64s64 28.654 64 64c0 5.685-0.741 11.198-2.133 16.445l0.101-0.447h2c0.005 0 0.011 0 0.017 0 17.673 0 32 14.327 32 32 0 14.406-9.519 26.588-22.61 30.6l-0.227 0.060zM784.66 585.2c-4.086 13.296-16.257 22.795-30.647 22.795-3.286 0-6.456-0.495-9.439-1.415l0.227 0.060-160-48c-13.283-4.093-22.77-16.259-22.77-30.64 0-17.663 14.31-31.983 31.969-32h0.002c-1.297-4.812-2.042-10.337-2.042-16.036 0-35.346 28.654-64 64-64s64 28.654 64 64c0 18.269-7.654 34.749-19.931 46.41l-0.028 0.026 63.16 18.94c13.325 4.067 22.852 16.253 22.852 30.664 0 3.257-0.487 6.401-1.391 9.362l0.060-0.227z" />
<glyph unicode="&#xc94c;" horiz-adv-x="640" d="M592 448h-544c-26.51 0-48-21.49-48-48v0-64c0-26.51 21.49-48 48-48v0h544c26.51 0 48 21.49 48 48v0 64c0 26.51-21.49 48-48 48v0z" />
<glyph unicode="&#xc94d;" horiz-adv-x="640" d="M240-16c0-26.51 21.49-48 48-48v0h64c26.51 0 48 21.49 48 48v0 304h-160zM320 960c-141.38 0-256-111.26-256-288 0-75.3 31.080-156 73.24-224h365.52c42.16 68 73.24 148.7 73.24 224 0 176.74-114.62 288-256 288zM320 470.26c-41.72 45.44-96 132.42-96 201.74 0 78.96 36.78 128 96 128s96-49.040 96-128c0-69.32-54.28-156.28-96-201.74z" />
<glyph unicode="&#xc94e;" horiz-adv-x="896" d="M591.84 784q-28-26-74-38c-20.234-6.352-43.502-10.012-67.624-10.012-0.836 0-1.67 0.004-2.503 0.013l0.127-0.001-30 2c-1.275 9.609-2.003 20.72-2.003 32s0.728 22.391 2.139 33.287l-0.136-1.287q8 72 46 110 28 26 74 38c20.234 6.352 43.502 10.012 67.624 10.012 0.836 0 1.67-0.004 2.503-0.013l-0.127 0.001 30-2 2-30c0.007-0.655 0.010-1.429 0.010-2.204 0-24.182-3.659-47.509-10.453-69.458l0.443 1.662q-12-46-38-74z" />
<glyph unicode="&#xc94f;" horiz-adv-x="896" d="M701.72 702q78-14 127.84-84 44-62 60-156c4.152-24.141 6.525-51.945 6.525-80.304 0-32.425-3.103-64.126-9.027-94.822l0.502 3.125q-24-142-95.88-238-86-116-215.74-116-32 0-70 20c-16.553 10.063-36.566 16.019-57.97 16.019s-41.417-5.956-58.472-16.302l0.502 0.283q-38-20-70-20-129.7 0-215.6 116-72 96-95.88 238c-5.422 27.57-8.525 59.271-8.525 91.696 0 28.359 2.373 56.163 6.932 83.225l-0.407-2.921q16 94 60 156 50 70 127.84 84 48 8 131.84-14 72-20 121.86-48 50 28 121.86 48 83.86 22 131.8 14z" />
<glyph unicode="&#xc950;" d="M848.34 798.78c-36.26 6-103.8-12.36-144.98-35.38-34 19.040-84.9 34-122.3 35.58 3.64-4.42 7.66-8.34 11-13.16 41.68-60.3 51.48-144.6 44.34-209.82h319.6c10.5 78.94-10.32 205.3-107.66 222.78zM421.060 859.060c22.58 24.38 28.94 64.060 26.44 100.44-25.76 1.72-71.34 0.24-100-26.56-33.1-33.2-27.5-92.72-26.48-100.44 36.98-2.5 75.54 3.7 100.040 26.56zM804.44 859.060c22.58 24.38 28.86 64 26.44 100.44-25.76 1.72-71.34 0.24-100-26.56-33.060-33.2-27.54-92.72-26.44-100.44 36.9-2.5 75.56 3.7 100 26.56zM464.96 798.78c-36.26 6-103.8-12.36-144.96-35.38-41.32 23.12-108.86 41.42-144.96 35.38-97.22-17.46-117.98-144.54-107.64-222.78h505.2c10.52 78.94-10.3 205.3-107.64 222.78z" />
<glyph unicode="&#xc951;" d="M992 512h-960c-17.673 0-32-14.327-32-32v0-224h1024v224c0 17.673-14.327 32-32 32v0zM128 352c-17.673 0-32 14.327-32 32s14.327 32 32 32c17.673 0 32-14.327 32-32v0c0-17.673-14.327-32-32-32v0zM896 352c-17.673 0-32 14.327-32 32s14.327 32 32 32c17.673 0 32-14.327 32-32v0c0-17.673-14.327-32-32-32v0zM0-32c0-17.673 14.327-32 32-32v0h960c17.673 0 32 14.327 32 32v0 224h-1024zM896 96c17.673 0 32-14.327 32-32s-14.327-32-32-32c-17.673 0-32 14.327-32 32v0c0 17.673 14.327 32 32 32v0zM128 96c17.673 0 32-14.327 32-32s-14.327-32-32-32c-17.673 0-32 14.327-32 32v0c0 17.673 14.327 32 32 32v0z" />
<glyph unicode="&#xc952;" d="M64 640v-576c0-35.346 28.654-64 64-64v0h768c35.346 0 64 28.654 64 64v0 576zM640 472c0-13.255-10.745-24-24-24v0h-208c-13.255 0-24 10.745-24 24v0 16c0 13.255 10.745 24 24 24v0h208c13.255 0 24-10.745 24-24v0z" />
<glyph unicode="&#xc953;" d="M1024 832v-96c0-17.673-14.327-32-32-32v0h-960c-17.673 0-32 14.327-32 32v0 96c0 35.346 28.654 64 64 64v0h896c35.346 0 64-28.654 64-64v0z" />
<glyph unicode="&#xc954;" horiz-adv-x="1152" d="M1152 928v-64c0-17.673-14.327-32-32-32v0h-1088c-17.673 0-32 14.327-32 32v0 64c0 17.673 14.327 32 32 32v0h1088c17.673 0 32-14.327 32-32v0z" />
<glyph unicode="&#xc955;" horiz-adv-x="1152" d="M1152 32v-64c0-17.673-14.327-32-32-32v0h-320c-17.673 0-32 14.327-32 32v0 352c0 106.039-85.961 192-192 192s-192-85.961-192-192v0-352c0-17.673-14.327-32-32-32v0h-320c-17.673 0-32 14.327-32 32v0 64c0 17.673 14.327 32 32 32v0h32v704h1024v-704h32c17.673 0 32-14.327 32-32v0z" />
<glyph unicode="&#xc956;" d="M512 944c-274 0-496-222-496-496s222-496 496-496 496 222 496 496-222 496-496 496zM760.82 407.36l-231.78-228.32c-4.364-4.322-10.37-6.993-17-6.993s-12.636 2.671-17.002 6.995l0.002-0.002-231.86 228.32c-15.34 14.98-4.44 40.96 17.14 40.96h143.020v231.68c0.091 13.274 10.873 24 24.159 24 0.014 0 0.029 0 0.043 0h129.118c0.012 0 0.026 0 0.041 0 13.287 0 24.069-10.726 24.159-23.991v-231.689h142.82c21.58 0 32.48-25.78 17.14-40.96z" />
<glyph unicode="&#xc957;" d="M447.54 704h129.12c0.012 0 0.026 0 0.041 0 13.287 0 24.069-10.726 24.159-23.991v-231.689h142.82c21.58 0 32.48-25.78 17.14-40.96l-231.78-228.32c-4.364-4.322-10.37-6.993-17-6.993s-12.636 2.671-17.002 6.995l0.002-0.002-231.86 228.32c-15.34 14.98-4.44 40.96 17.14 40.96h143.020v231.68c0.091 13.274 10.873 24 24.159 24 0.014 0 0.029 0 0.043 0h-0.002z" />
<glyph unicode="&#xc958;" d="M512 944c-274 0-496-222-496-496s222-496 496-496 496 222 496 496-222 496-496 496zM768 383.34c0-0.012 0-0.026 0-0.041 0-13.287-10.726-24.069-23.991-24.159h-231.689v-142.82c0-21.58-25.78-32.48-40.96-17.14l-228.32 231.78c-4.322 4.364-6.993 10.37-6.993 17s2.671 12.636 6.995 17.002l-0.002-0.002 228.32 231.86c14.98 15.34 40.96 4.44 40.96-17.14v-143.020h231.68c13.274-0.091 24-10.873 24-24.159 0-0.014 0-0.029 0-0.043v0.002z" />
<glyph unicode="&#xc959;" d="M768 512.46v-129.12c0-0.012 0-0.026 0-0.041 0-13.287-10.726-24.069-23.991-24.159h-231.689v-142.82c0-21.58-25.78-32.48-40.96-17.14l-228.32 231.78c-4.322 4.364-6.993 10.37-6.993 17s2.671 12.636 6.995 17.002l-0.002-0.002 228.32 231.86c14.98 15.34 40.96 4.44 40.96-17.14v-143.020h231.68c13.274-0.091 24-10.873 24-24.159 0-0.014 0-0.029 0-0.043v0.002z" />
<glyph unicode="&#xc95a;" d="M512 944c-274 0-496-222-496-496s222-496 496-496 496 222 496 496-222 496-496 496zM780.96 430.96l-228.32-231.78c-14.98-15.34-40.96-4.44-40.96 17.14v143.020h-231.68c-13.274 0.091-24 10.873-24 24.159 0 0.014 0 0.029 0 0.043v-0.002 129.12c0 0.012 0 0.026 0 0.041 0 13.287 10.726 24.069 23.991 24.159h231.689v142.82c0 21.58 25.78 32.48 40.96 17.14l228.32-231.78c4.346-4.368 7.033-10.39 7.033-17.040s-2.687-12.672-7.034-17.041l0.001 0.001z" />
<glyph unicode="&#xc95b;" d="M256 383.54v129.12c0 0.012 0 0.026 0 0.041 0 13.287 10.726 24.069 23.991 24.159h231.689v142.82c0 21.58 25.78 32.48 40.96 17.14l228.32-231.78c4.322-4.364 6.993-10.37 6.993-17s-2.671-12.636-6.995-17.002l0.002 0.002-228.32-231.86c-14.98-15.34-40.96-4.44-40.96 17.14v143.020h-231.68c-13.274 0.091-24 10.873-24 24.159 0 0.014 0 0.029 0 0.043v-0.002z" />
<glyph unicode="&#xc95c;" d="M512 944c-274 0-496-222-496-496s222-496 496-496 496 222 496 496-222 496-496 496zM743.68 447.68h-143.020v-231.68c-0.091-13.274-10.873-24-24.159-24-0.014 0-0.029 0-0.043 0h-129.118c-0.012 0-0.026 0-0.041 0-13.287 0-24.069 10.726-24.159 23.991v231.689h-142.82c-21.58 0-32.48 25.78-17.14 40.96l231.78 228.32c4.364 4.322 10.37 6.993 17 6.993s12.636-2.671 17.002-6.995l-0.002 0.002 231.86-228.32c15.34-14.98 4.44-40.96-17.14-40.96z" />
<glyph unicode="&#xc95d;" d="M576.46 192h-129.12c-0.012 0-0.026 0-0.041 0-13.287 0-24.069 10.726-24.159 23.991v231.689h-142.82c-21.58 0-32.48 25.78-17.14 40.96l231.78 228.32c4.364 4.322 10.37 6.993 17 6.993s12.636-2.671 17.002-6.995l-0.002 0.002 231.86-228.32c15.34-14.98 4.44-40.96-17.14-40.96h-143.020v-231.68c-0.091-13.274-10.873-24-24.159-24-0.014 0-0.029 0-0.043 0h0.002z" />
<glyph unicode="&#xc95e;" horiz-adv-x="896" d="M576 848v-400h-256.24v400c0 26.51 21.49 48 48 48v0h160.24c26.51 0 48-21.49 48-48v0z" />
<glyph unicode="&#xc95f;" horiz-adv-x="896" d="M817.86 366l-335.86-352c-8.712-8.678-20.729-14.043-34-14.043s-25.288 5.365-34.001 14.045l0.001-0.001-335.86 352c-30.22 30.18-8.8 82 34 82h671.72c42.84 0 64.14-51.52 34-82z" />
<glyph unicode="&#xc960;" horiz-adv-x="768" d="M720 0h-672c-26.51 0-48 21.49-48 48v0 32c0 26.51 21.49 48 48 48v0h672c26.51 0 48-21.49 48-48v0-32c0-26.51-21.49-48-48-48v0z" />
<glyph unicode="&#xc961;" horiz-adv-x="768" d="M464 192h-160c-0.036 0-0.078 0-0.12 0-26.443 0-47.88 21.437-47.88 47.88 0 0.042 0 0.084 0 0.127v-0.007 272h-175.4c-35.6 0-53.6 43.020-28.4 68.22l304.6 304.52c6.999 6.96 16.647 11.262 27.3 11.262s20.301-4.302 27.302-11.264l304.198-304.458c25.2-25.2 7.4-68.22-28.2-68.22h-175.4v-272.060c0-0.036 0-0.078 0-0.12 0-26.443-21.437-47.88-47.88-47.88-0.042 0-0.084 0-0.127 0h0.007z" />
<glyph unicode="&#xc962;" horiz-adv-x="896" d="M0 112v672c0 0.036 0 0.078 0 0.12 0 26.443 21.437 47.88 47.88 47.88 0.042 0 0.084 0 0.127 0h31.993c0.036 0 0.078 0 0.12 0 26.443 0 47.88-21.437 47.88-47.88 0-0.042 0-0.084 0-0.127v0.007-672c0-0.036 0-0.078 0-0.12 0-26.443-21.437-47.88-47.88-47.88-0.042 0-0.084 0-0.127 0h-31.993c-0.036 0-0.078 0-0.12 0-26.443 0-47.88 21.437-47.88 47.88 0 0.042 0 0.084 0 0.127v-0.007z" />
<glyph unicode="&#xc963;" horiz-adv-x="896" d="M192 368v160c0 0.036 0 0.078 0 0.12 0 26.443 21.437 47.88 47.88 47.88 0.042 0 0.084 0 0.127 0h271.993v175.6c0 35.6 43.020 53.4 68.22 28.2l304.52-304.4c6.96-6.999 11.262-16.647 11.262-27.3s-4.302-20.301-11.264-27.302l-304.458-304.398c-25.2-25.2-68.22-7.4-68.22 28.2v175.4h-272.060c-0.036 0-0.078 0-0.12 0-26.443 0-47.88 21.437-47.88 47.88 0 0.042 0 0.084 0 0.127v-0.007z" />
<glyph unicode="&#xc964;" horiz-adv-x="896" d="M896 784v-672c0-0.036 0-0.078 0-0.12 0-26.443-21.437-47.88-47.88-47.88-0.042 0-0.084 0-0.127 0h-31.993c-0.036 0-0.078 0-0.12 0-26.443 0-47.88 21.437-47.88 47.88 0 0.042 0 0.084 0 0.127v-0.007 672c0 0.036 0 0.078 0 0.12 0 26.443 21.437 47.88 47.88 47.88 0.042 0 0.084 0 0.127 0h31.993c0.036 0 0.078 0 0.12 0 26.443 0 47.88-21.437 47.88-47.88 0-0.042 0-0.084 0-0.127v0.007z" />
<glyph unicode="&#xc965;" horiz-adv-x="896" d="M704 528.22v-160.22c0-26.51-21.49-48-48-48v0h-272v-176c0-35.64-43.020-53.46-68.22-28.24l-304.52 304.9c-6.964 7.012-11.269 16.673-11.269 27.34s4.304 20.328 11.271 27.342l-0.002-0.002 304.46 304.84c25.2 25.22 68.28 7.4 68.28-28.18v-175.66h272c0 0 0 0 0 0 26.51 0 48-21.49 48-48 0-0.042 0-0.084 0-0.127v0.007z" />
<glyph unicode="&#xc966;" horiz-adv-x="768" d="M768 848v-32c0-0.036 0-0.078 0-0.12 0-26.443-21.437-47.88-47.88-47.88-0.042 0-0.084 0-0.127 0h-671.993c-0.036 0-0.078 0-0.12 0-26.443 0-47.88 21.437-47.88 47.88 0 0.042 0 0.084 0 0.127v-0.007 32c0 0.036 0 0.078 0 0.12 0 26.443 21.437 47.88 47.88 47.88 0.042 0 0.084 0 0.127 0h671.993c0.036 0 0.078 0 0.12 0 26.443 0 47.88-21.437 47.88-47.88 0-0.042 0-0.084 0-0.127v0.007z" />
<glyph unicode="&#xc967;" horiz-adv-x="768" d="M303.78 704h160.22c26.51 0 48-21.49 48-48v0-272h176c35.64 0 53.46-43.020 28.24-68.22l-304.9-304.52c-7.012-6.964-16.673-11.269-27.34-11.269s-20.328 4.304-27.342 11.271l0.002-0.002-304.84 304.46c-25.22 25.2-7.4 68.28 28.18 68.28h175.66v272c0 0 0 0 0 0 0 26.51 21.49 48 48 48 0.042 0 0.084 0 0.127 0h-0.007z" />
<glyph unicode="&#xc968;" horiz-adv-x="896" d="M848 320h-400v256.22h400c26.51 0 48-21.49 48-48v0-160.22c0-26.51-21.49-48-48-48v0z" />
<glyph unicode="&#xc969;" horiz-adv-x="896" d="M366 78.16l-352 335.84c-8.693 8.705-14.068 20.725-14.068 34s5.376 25.295 14.069 34.001l-0.001-0.001 352 335.82c30.2 30.22 82 8.8 82-34v-671.66c0-42.84-51.52-64.26-82-34z" />
<glyph unicode="&#xc96a;" horiz-adv-x="896" d="M48 576h400v-256.28h-400c-26.51 0-48 21.49-48 48v0 160.28c0 26.51 21.49 48 48 48v0z" />
<glyph unicode="&#xc96b;" horiz-adv-x="896" d="M530 817.78l352-335.78c8.683-8.71 14.052-20.728 14.052-34s-5.369-25.29-14.053-34.001l0.001 0.001-352-335.88c-30.2-30.22-82-8.8-82 34v671.66c0 42.84 51.5 64.22 82 34z" />
<glyph unicode="&#xc96c;" horiz-adv-x="896" d="M800 896h-704c-53.019 0-96-42.981-96-96v0-704c0-53.019 42.981-96 96-96v0h704c53.019 0 96 42.981 96 96v0 704c0 53.019-42.981 96-96 96v0zM696.84 407.36l-232-230.32c-4.364-4.322-10.37-6.993-17-6.993s-12.636 2.671-17.002 6.995l0.002-0.002-231.68 230.32c-15.32 14.98-4.42 40.64 17.14 40.64h142.98v232c0.079 13.272 10.857 24 24.14 24 0.021 0 0.042 0 0.064 0h129.037c0.018 0 0.039 0 0.060 0 13.283 0 24.060-10.728 24.14-23.993v-232.008h142.98c21.56 0 32.46-25.66 17.14-40.64z" />
<glyph unicode="&#xc96d;" horiz-adv-x="896" d="M383.48 704h129.040c0.018 0 0.039 0 0.060 0 13.283 0 24.060-10.728 24.14-23.993v-232.008h142.98c21.56 0 32.46-25.66 17.14-40.64l-232-230.32c-4.364-4.322-10.37-6.993-17-6.993s-12.636 2.671-17.002 6.995l0.002-0.002-231.68 230.32c-15.32 14.98-4.42 40.64 17.14 40.64h142.98v232c0.079 13.272 10.857 24 24.14 24 0.021 0 0.042 0 0.064 0h-0.003z" />
<glyph unicode="&#xc96e;" horiz-adv-x="896" d="M800 896h-704c-53.019 0-96-42.981-96-96v0-704c0-53.019 42.981-96 96-96v0h704c53.019 0 96 42.981 96 96v0 704c0 53.019-42.981 96-96 96v0zM704 383.48c0-0.018 0-0.039 0-0.060 0-13.283-10.728-24.060-23.993-24.14h-232.008v-142.98c0-21.56-25.66-32.46-40.64-17.14l-230.32 231.9c-4.322 4.364-6.993 10.37-6.993 17s2.671 12.636 6.995 17.002l-0.002-0.002 230.32 231.78c14.98 15.32 40.64 4.42 40.64-17.14v-142.98h232c13.272-0.079 24-10.857 24-24.14 0-0.021 0-0.042 0-0.064v0.003z" />
<glyph unicode="&#xc96f;" horiz-adv-x="896" d="M704 512.52v-129.040c0-0.018 0-0.039 0-0.060 0-13.283-10.728-24.060-23.993-24.14h-232.008v-142.98c0-21.56-25.66-32.46-40.64-17.14l-230.32 231.9c-4.322 4.364-6.993 10.37-6.993 17s2.671 12.636 6.995 17.002l-0.002-0.002 230.32 231.78c14.98 15.32 40.64 4.42 40.64-17.14v-142.98h232c13.272-0.079 24-10.857 24-24.14 0-0.021 0-0.042 0-0.064v0.003z" />
<glyph unicode="&#xc970;" horiz-adv-x="896" d="M800 896h-704c-53.019 0-96-42.981-96-96v0-704c0-53.019 42.981-96 96-96v0h704c53.019 0 96 42.981 96 96v0 704c0 53.019-42.981 96-96 96v0zM718.96 430.86l-230.32-231.7c-14.98-15.32-40.64-4.42-40.64 17.14v142.98h-232c-13.272 0.079-24 10.857-24 24.14 0 0.021 0 0.042 0 0.064v-0.003 129.040c0 0.018 0 0.039 0 0.060 0 13.283 10.728 24.060 23.993 24.14h232.008v142.98c0 21.56 25.66 32.46 40.64 17.14l230.32-232c4.316-4.363 6.983-10.365 6.983-16.99s-2.667-12.627-6.985-16.992l0.002 0.002z" />
<glyph unicode="&#xc971;" horiz-adv-x="896" d="M192 383.48v129.040c0 0.018 0 0.039 0 0.060 0 13.283 10.728 24.060 23.993 24.14h232.008v142.98c0 21.56 25.66 32.46 40.64 17.14l230.32-232c4.322-4.364 6.993-10.37 6.993-17s-2.671-12.636-6.995-17.002l0.002 0.002-230.32-231.68c-14.98-15.32-40.64-4.42-40.64 17.14v142.98h-232c-13.272 0.079-24 10.857-24 24.14 0 0.021 0 0.042 0 0.064v-0.003z" />
<glyph unicode="&#xc972;" horiz-adv-x="896" d="M800 896h-704c-53.019 0-96-42.981-96-96v0-704c0-53.019 42.981-96 96-96v0h704c53.019 0 96 42.981 96 96v0 704c0 53.019-42.981 96-96 96v0zM679.7 448h-142.98v-232c-0.079-13.272-10.857-24-24.14-24-0.021 0-0.042 0-0.064 0h-129.037c-0.018 0-0.039 0-0.060 0-13.283 0-24.060 10.728-24.14 23.993v232.008h-142.98c-21.56 0-32.46 25.66-17.14 40.64l232 230.32c4.364 4.322 10.37 6.993 17 6.993s12.636-2.671 17.002-6.995l-0.002 0.002 231.68-230.32c15.32-14.98 4.42-40.64-17.14-40.64z" />
<glyph unicode="&#xc973;" horiz-adv-x="896" d="M512.52 192h-129.040c-0.018 0-0.039 0-0.060 0-13.283 0-24.060 10.728-24.14 23.993v232.008h-142.98c-21.56 0-32.46 25.66-17.14 40.64l232 230.32c4.364 4.322 10.37 6.993 17 6.993s12.636-2.671 17.002-6.995l-0.002 0.002 231.68-230.32c15.32-14.98 4.42-40.64-17.14-40.64h-142.98v-232c-0.079-13.272-10.857-24-24.14-24-0.021 0-0.042 0-0.064 0h0.003z" />
<glyph unicode="&#xc974;" horiz-adv-x="768" d="M720 0h-672c-26.51 0-48 21.49-48 48v0 32c0 26.51 21.49 48 48 48v0h672c26.51 0 48-21.49 48-48v0-32c0-26.51-21.49-48-48-48v0z" />
<glyph unicode="&#xc975;" horiz-adv-x="768" d="M303.84 896h160c0.036 0 0.078 0 0.12 0 26.443 0 47.88-21.437 47.88-47.88 0-0.042 0-0.084 0-0.127v0.007-272h175.4c35.6 0 53.6-43.020 28.4-68.22l-304.6-304.52c-6.999-6.96-16.647-11.262-27.3-11.262s-20.301 4.302-27.302 11.264l-304.198 304.458c-25.2 25.2-7.4 68.22 28.2 68.22h175.4v272.060c0 0.036 0 0.078 0 0.12 0 26.443 21.437 47.88 47.88 47.88 0.042 0 0.084 0 0.127 0h-0.007z" />
<glyph unicode="&#xc976;" horiz-adv-x="896" d="M0 112v672c0 0.036 0 0.078 0 0.12 0 26.443 21.437 47.88 47.88 47.88 0.042 0 0.084 0 0.127 0h31.993c0.036 0 0.078 0 0.12 0 26.443 0 47.88-21.437 47.88-47.88 0-0.042 0-0.084 0-0.127v0.007-672c0-0.036 0-0.078 0-0.12 0-26.443-21.437-47.88-47.88-47.88-0.042 0-0.084 0-0.127 0h-31.993c-0.036 0-0.078 0-0.12 0-26.443 0-47.88 21.437-47.88 47.88 0 0.042 0 0.084 0 0.127v-0.007z" />
<glyph unicode="&#xc977;" horiz-adv-x="896" d="M896 528.2v-160c0-0.036 0-0.078 0-0.12 0-26.443-21.437-47.88-47.88-47.88-0.042 0-0.084 0-0.127 0h-271.993v-175.6c0-35.6-43.020-53.4-68.22-28.2l-304.52 304.4c-6.96 6.999-11.262 16.647-11.262 27.3s4.302 20.301 11.264 27.302l304.458 304.398c25.2 25.2 68.28 7.4 68.28-28.2v-175.4h272c0.036 0 0.078 0 0.12 0 26.443 0 47.88-21.437 47.88-47.88 0-0.042 0-0.084 0-0.127v0.007z" />
<glyph unicode="&#xc978;" horiz-adv-x="896" d="M896 784v-672c0-0.036 0-0.078 0-0.12 0-26.443-21.437-47.88-47.88-47.88-0.042 0-0.084 0-0.127 0h-31.993c-0.036 0-0.078 0-0.12 0-26.443 0-47.88 21.437-47.88 47.88 0 0.042 0 0.084 0 0.127v-0.007 672c0 0.036 0 0.078 0 0.12 0 26.443 21.437 47.88 47.88 47.88 0.042 0 0.084 0 0.127 0h31.993c0.036 0 0.078 0 0.12 0 26.443 0 47.88-21.437 47.88-47.88 0-0.042 0-0.084 0-0.127v0.007z" />
<glyph unicode="&#xc979;" horiz-adv-x="896" d="M0 367.78v160.22c0 26.51 21.49 48 48 48v0h272v176c0 35.64 43.020 53.46 68.22 28.24l304.52-304.9c6.964-7.012 11.269-16.673 11.269-27.34s-4.304-20.328-11.271-27.342l0.002 0.002-304.46-304.84c-25.2-25.22-68.28-7.4-68.28 28.18v175.72h-272c-26.51 0-48 21.49-48 48 0 0.021 0 0.042 0 0.063v-0.003z" />
<glyph unicode="&#xc97a;" horiz-adv-x="768" d="M48 896h672c0.036 0 0.078 0 0.12 0 26.401 0 47.812-21.368 47.88-47.754v-32.247c0-0.036 0-0.078 0-0.12 0-26.401-21.368-47.812-47.754-47.88h-672.247c-0.036 0-0.078 0-0.12 0-26.401 0-47.812 21.368-47.88 47.754v32.247c0 0.036 0 0.078 0 0.12 0 26.401 21.368 47.812 47.754 47.88h0.007z" />
<glyph unicode="&#xc97b;" horiz-adv-x="768" d="M464.22 0h-160.22c-26.51 0-48 21.49-48 48v0 272h-176c-35.64 0-53.46 43.020-28.24 68.22l304.9 304.52c7.012 6.964 16.673 11.269 27.34 11.269s20.328-4.304 27.342-11.271l-0.002 0.002 304.84-304.46c25.22-25.2 7.4-68.28-28.18-68.28h-175.66v-272c0-26.51-21.49-48-48-48v0z" />
<glyph unicode="&#xc97c;" horiz-adv-x="896" d="M320 48v400h256.22v-400c0-26.51-21.49-48-48-48v0h-160.22c-26.51 0-48 21.49-48 48v0z" />
<glyph unicode="&#xc97d;" horiz-adv-x="896" d="M78.1 530l335.9 352c8.71 8.683 20.728 14.052 34 14.052s25.29-5.369 34.001-14.053l-0.001 0.001 335.84-352c30.22-30.18 8.8-82-34-82h-671.74c-42.84 0-64.1 51.4-34 82z" />
<glyph unicode="&#xc97e;" d="M512 944c-274 0-496-222-496-496s222-496 496-496 496 222 496 496-222 496-496 496zM811.2 416.8l-265.4-265.4c-8.66-8.71-20.65-14.101-33.9-14.101s-25.24 5.391-33.898 14.099l-265.202 265.402c-8.71 8.66-14.101 20.65-14.101 33.9s5.391 25.24 14.099 33.898l0.002 0.002 21.8 22c8.683 8.667 20.67 14.026 33.908 14.026 13.632 0 25.937-5.683 34.675-14.809l0.017-0.017 144.8-151v365.2c0 0.036 0 0.078 0 0.12 0 26.443 21.437 47.88 47.88 47.88 0.042 0 0.084 0 0.127 0h31.993c0.036 0 0.078 0 0.12 0 26.443 0 47.88-21.437 47.88-47.88 0-0.042 0-0.084 0-0.127v0.007-365.2l144.8 151c8.754 9.143 21.059 14.826 34.692 14.826 13.239 0 25.225-5.359 33.909-14.027l-0.001 0.001 21.8-22c8.71-8.66 14.101-20.65 14.101-33.9s-5.391-25.24-14.099-33.898l-0.002-0.002z" />
<glyph unicode="&#xc97f;" d="M720.8 505.8c8.754 9.143 21.059 14.826 34.692 14.826 13.239 0 25.225-5.359 33.909-14.027l-0.001 0.001 21.8-22c8.71-8.66 14.101-20.65 14.101-33.9s-5.391-25.24-14.099-33.898l-265.402-265.402c-8.66-8.71-20.65-14.101-33.9-14.101s-25.24 5.391-33.898 14.099l-265.202 265.402c-8.71 8.66-14.101 20.65-14.101 33.9s5.391 25.24 14.099 33.898l0.002 0.002 21.8 22c8.683 8.667 20.67 14.026 33.908 14.026 13.632 0 25.937-5.683 34.675-14.809l0.017-0.017 144.8-151v365.2c0 0.036 0 0.078 0 0.12 0 26.443 21.437 47.88 47.88 47.88 0.042 0 0.084 0 0.127 0h31.993c0.036 0 0.078 0 0.12 0 26.443 0 47.88-21.437 47.88-47.88 0-0.042 0-0.084 0-0.127v0.007-365.2l144.8 151z" />
<glyph unicode="&#xc980;" d="M512 944c-274 0-496-222-496-496s222-496 496-496 496 222 496 496-222 496-496 496zM832 432c0-0.036 0-0.078 0-0.12 0-26.443-21.437-47.88-47.88-47.88-0.042 0-0.084 0-0.127 0h-365.193l151-144.8c9.143-8.754 14.826-21.059 14.826-34.692 0-13.239-5.359-25.225-14.027-33.909l0.001 0.001-22-21.8c-8.66-8.71-20.65-14.101-33.9-14.101s-25.24 5.391-33.898 14.099l-265.402 265.402c-8.71 8.66-14.101 20.65-14.101 33.9s5.391 25.24 14.099 33.898l265.402 265.202c8.66 8.71 20.65 14.101 33.9 14.101s25.24-5.391 33.898-14.099l0.002-0.002 22-21.8c8.667-8.683 14.026-20.67 14.026-33.908 0-13.632-5.683-25.937-14.809-34.675l-0.017-0.017-151-144.8h365.2c0.036 0 0.078 0 0.12 0 26.443 0 47.88-21.437 47.88-47.88 0-0.042 0-0.084 0-0.127v0.007z" />
<glyph unicode="&#xc981;" d="M570.6 170.6l-22-21.8c-8.66-8.71-20.65-14.101-33.9-14.101s-25.24 5.391-33.898 14.099l-265.402 265.402c-8.71 8.66-14.101 20.65-14.101 33.9s5.391 25.24 14.099 33.898l265.402 265.202c8.66 8.71 20.65 14.101 33.9 14.101s25.24-5.391 33.898-14.099l0.002-0.002 22-21.8c8.667-8.683 14.026-20.67 14.026-33.908 0-13.632-5.683-25.937-14.809-34.675l-0.017-0.017-151-144.8h365.2c0.036 0 0.078 0 0.12 0 26.443 0 47.88-21.437 47.88-47.88 0-0.042 0-0.084 0-0.127v0.007-32c0-0.036 0-0.078 0-0.12 0-26.443-21.437-47.88-47.88-47.88-0.042 0-0.084 0-0.127 0h-365.193l151-144.8c9.143-8.754 14.826-21.059 14.826-34.692 0-13.239-5.359-25.225-14.027-33.909l0.001 0.001z" />
<glyph unicode="&#xc982;" d="M512 944c-274 0-496-222-496-496s222-496 496-496 496 222 496 496-222 496-496 496zM808.6 414l-265.4-265.2c-8.66-8.71-20.65-14.101-33.9-14.101s-25.24 5.391-33.898 14.099l-0.002 0.002-22 21.8c-8.667 8.683-14.026 20.67-14.026 33.908 0 13.632 5.683 25.937 14.809 34.675l0.017 0.017 151 144.8h-365.2c-0.036 0-0.078 0-0.12 0-26.443 0-47.88 21.437-47.88 47.88 0 0.042 0 0.084 0 0.127v-0.007 32c0 0.036 0 0.078 0 0.12 0 26.443 21.437 47.88 47.88 47.88 0.042 0 0.084 0 0.127 0h365.193l-151 144.8c-9.13 8.8-14.8 21.135-14.8 34.794 0 13.265 5.347 25.28 14.003 34.009l-0.003-0.003 22 21.8c8.66 8.71 20.65 14.101 33.9 14.101s25.24-5.391 33.898-14.099l265.402-265.602c8.71-8.66 14.101-20.65 14.101-33.9s-5.391-25.24-14.099-33.898l-0.002-0.002z" />
<glyph unicode="&#xc983;" d="M453.4 725.6l22 21.8c8.66 8.71 20.65 14.101 33.9 14.101s25.24-5.391 33.898-14.099l265.402-265.602c8.71-8.66 14.101-20.65 14.101-33.9s-5.391-25.24-14.099-33.898l-265.402-265.202c-8.66-8.71-20.65-14.101-33.9-14.101s-25.24 5.391-33.898 14.099l-0.002 0.002-22 21.8c-8.667 8.683-14.026 20.67-14.026 33.908 0 13.632 5.683 25.937 14.809 34.675l0.017 0.017 151 144.8h-365.2c-0.036 0-0.078 0-0.12 0-26.443 0-47.88 21.437-47.88 47.88 0 0.042 0 0.084 0 0.127v-0.007 32c0 0.036 0 0.078 0 0.12 0 26.443 21.437 47.88 47.88 47.88 0.042 0 0.084 0 0.127 0h365.193l-151 144.8c-9.13 8.8-14.8 21.135-14.8 34.794 0 13.265 5.347 25.28 14.003 34.009l-0.003-0.003z" />
<glyph unicode="&#xc984;" d="M512 944c-274 0-496-222-496-496s222-496 496-496 496 222 496 496-222 496-496 496zM811.2 411.4l-21.8-22c-8.683-8.667-20.67-14.026-33.908-14.026-13.632 0-25.937 5.683-34.675 14.809l-0.017 0.017-144.8 151v-365.2c0-0.036 0-0.078 0-0.12 0-26.443-21.437-47.88-47.88-47.88-0.042 0-0.084 0-0.127 0h-31.993c-0.036 0-0.078 0-0.12 0-26.443 0-47.88 21.437-47.88 47.88 0 0.042 0 0.084 0 0.127v-0.007 365.2l-144.8-151c-8.8-9.13-21.135-14.8-34.794-14.8-13.265 0-25.28 5.347-34.009 14.003l0.003-0.003-21.8 22c-8.71 8.66-14.101 20.65-14.101 33.9s5.391 25.24 14.099 33.898l265.602 265.402c8.66 8.71 20.65 14.101 33.9 14.101s25.24-5.391 33.898-14.099l265.202-265.402c8.71-8.66 14.101-20.65 14.101-33.9s-5.391-25.24-14.099-33.898l-0.002-0.002z" />
<glyph unicode="&#xc985;" d="M234.4 389.4l-21.8 22c-8.71 8.66-14.101 20.65-14.101 33.9s5.391 25.24 14.099 33.898l265.602 265.402c8.66 8.71 20.65 14.101 33.9 14.101s25.24-5.391 33.898-14.099l265.202-265.402c8.71-8.66 14.101-20.65 14.101-33.9s-5.391-25.24-14.099-33.898l-0.002-0.002-21.8-22c-8.683-8.667-20.67-14.026-33.908-14.026-13.632 0-25.937 5.683-34.675 14.809l-0.017 0.017-144.8 151v-365.2c0-0.036 0-0.078 0-0.12 0-26.443-21.437-47.88-47.88-47.88-0.042 0-0.084 0-0.127 0h-31.993c-0.036 0-0.078 0-0.12 0-26.443 0-47.88 21.437-47.88 47.88 0 0.042 0 0.084 0 0.127v-0.007 365.2l-144.8-151c-8.8-9.13-21.135-14.8-34.794-14.8-13.265 0-25.28 5.347-34.009 14.003l0.003-0.003z" />
<glyph unicode="&#xc986;" horiz-adv-x="896" d="M530 848v-572.8l-82-83.2-82 83.18v572.82c0 26.6 22 48 49.26 48h65.64c0.197 0.003 0.429 0.005 0.662 0.005 26.6 0 48.192-21.44 48.438-47.981v-0.023z" />
<glyph unicode="&#xc987;" horiz-adv-x="896" d="M882.96 403.38c-0.46-0.48-0.94-0.96-1.42-1.42l-398.66-387.96c-8.987-8.71-21.257-14.079-34.78-14.079s-25.793 5.369-34.793 14.091l0.013-0.013-398.86 388c-8.915 8.529-14.456 20.521-14.456 33.808 0 12.591 4.977 24.020 13.070 32.427l-0.014-0.015c0.44 0.48 0.92 0.94 1.4 1.4l45.54 44.26c9.013 8.646 21.271 13.97 34.772 13.97 13.903 0 26.488-5.645 35.587-14.769l0.001-0.001 317.64-321.46 317.6 321.46c9.056 9.214 21.652 14.924 35.582 14.924 13.531 0 25.803-5.388 34.789-14.135l-0.011 0.011 45.56-44.3c8.921-8.53 14.467-20.526 14.467-33.818 0-12.576-4.965-23.993-13.042-32.397l0.015 0.015z" />
<glyph unicode="&#xc988;" horiz-adv-x="768" d="M720 0h-672c-0.036 0-0.078 0-0.12 0-26.443 0-47.88 21.437-47.88 47.88 0 0.042 0 0.084 0 0.127v-0.007 32c0 0.036 0 0.078 0 0.12 0 26.443 21.437 47.88 47.88 47.88 0.042 0 0.084 0 0.127 0h671.993c0.036 0 0.078 0 0.12 0 26.443 0 47.88-21.437 47.88-47.88 0-0.042 0-0.084 0-0.127v0.007-32c0-0.036 0-0.078 0-0.12 0-26.443-21.437-47.88-47.88-47.88-0.042 0-0.084 0-0.127 0h0.007z" />
<glyph unicode="&#xc989;" horiz-adv-x="768" d="M112.26 509.040l-34.12 34c-8.736 8.652-14.145 20.649-14.145 33.91s5.409 25.258 14.141 33.906l0.004 0.004 271.86 271.040c8.692 8.721 20.716 14.118 34 14.118s25.308-5.396 33.999-14.116l0.001-0.001 271.86-271.040c8.736-8.652 14.145-20.649 14.145-33.91s-5.409-25.258-14.141-33.906l-0.004-0.004-34.12-34c-8.692-8.721-20.716-14.118-34-14.118s-25.308 5.396-33.999 14.116l-0.001 0.001-131.62 131.22v-400.26c0 0 0 0 0 0 0-26.51-21.49-48-48-48-0.042 0-0.084 0-0.127 0h-48.173c-0.042 0-0.091 0-0.14 0-26.51 0-48 21.49-48 48 0 0 0 0 0 0v0 400.26l-131.68-131.22c-8.657-8.692-20.635-14.071-33.87-14.071s-25.213 5.379-33.868 14.069l-0.002 0.002z" />
<glyph unicode="&#xc98a;" horiz-adv-x="896" d="M0 112v672c0 0.036 0 0.078 0 0.12 0 26.443 21.437 47.88 47.88 47.88 0.042 0 0.084 0 0.127 0h31.993c0.036 0 0.078 0 0.12 0 26.443 0 47.88-21.437 47.88-47.88 0-0.042 0-0.084 0-0.127v0.007-672c0-0.036 0-0.078 0-0.12 0-26.443-21.437-47.88-47.88-47.88-0.042 0-0.084 0-0.127 0h-31.993c-0.036 0-0.078 0-0.12 0-26.443 0-47.88 21.437-47.88 47.88 0 0.042 0 0.084 0 0.127v-0.007z" />
<glyph unicode="&#xc98b;" horiz-adv-x="896" d="M509.040 719.74l34 34.12c8.652 8.736 20.649 14.145 33.91 14.145s25.258-5.409 33.906-14.141l0.004-0.004 271.14-271.86c8.721-8.692 14.118-20.716 14.118-34s-5.396-25.308-14.116-33.999l-0.001-0.001-271.14-271.86c-8.652-8.736-20.649-14.145-33.91-14.145s-25.258 5.409-33.906 14.141l-0.004 0.004-34 34.12c-8.721 8.692-14.118 20.716-14.118 34s5.396 25.308 14.116 33.999l0.001 0.001 131.22 131.62h-400.26c0 0 0 0 0 0-26.51 0-48 21.49-48 48 0 0.042 0 0.084 0 0.127v-0.007 48.18c0 0.042 0 0.091 0 0.14 0 26.51 21.49 48 48 48 0 0 0 0 0 0h400.26l-131.22 131.68c-8.692 8.657-14.071 20.635-14.071 33.87s5.379 25.213 14.069 33.868l0.002 0.002z" />
<glyph unicode="&#xc98c;" horiz-adv-x="896" d="M896 784v-672c0-0.036 0-0.078 0-0.12 0-26.443-21.437-47.88-47.88-47.88-0.042 0-0.084 0-0.127 0h-31.993c-0.036 0-0.078 0-0.12 0-26.443 0-47.88 21.437-47.88 47.88 0 0.042 0 0.084 0 0.127v-0.007 672c0 0.036 0 0.078 0 0.12 0 26.443 21.437 47.88 47.88 47.88 0.042 0 0.084 0 0.127 0h31.993c0.036 0 0.078 0 0.12 0 26.443 0 47.88-21.437 47.88-47.88 0-0.042 0-0.084 0-0.127v0.007z" />
<glyph unicode="&#xc98d;" horiz-adv-x="896" d="M386.96 176.26l-34-34.12c-8.652-8.736-20.649-14.145-33.91-14.145s-25.258 5.409-33.906 14.141l-0.004 0.004-271.040 271.86c-8.721 8.692-14.118 20.716-14.118 34s5.396 25.308 14.116 33.999l0.001 0.001 271.040 271.86c8.652 8.736 20.649 14.145 33.91 14.145s25.258-5.409 33.906-14.141l0.004-0.004 34-34.12c8.721-8.692 14.118-20.716 14.118-34s-5.396-25.308-14.116-33.999l-0.001-0.001-131.22-131.62h400.26c0 0 0 0 0 0 26.51 0 48-21.49 48-48 0-0.042 0-0.084 0-0.127v0.007-48.16c0-0.042 0-0.091 0-0.14 0-26.51-21.49-48-48-48 0 0 0 0 0 0h-400.26l131.22-131.7c8.692-8.657 14.071-20.635 14.071-33.87s-5.379-25.213-14.069-33.868l-0.002-0.002z" />
<glyph unicode="&#xc98e;" horiz-adv-x="768" d="M48 896h672c0.036 0 0.078 0 0.12 0 26.443 0 47.88-21.437 47.88-47.88 0-0.042 0-0.084 0-0.127v0.007-32c0-0.036 0-0.078 0-0.12 0-26.443-21.437-47.88-47.88-47.88-0.042 0-0.084 0-0.127 0h-671.993c-0.036 0-0.078 0-0.12 0-26.443 0-47.88 21.437-47.88 47.88 0 0.042 0 0.084 0 0.127v-0.007 32c0 0.036 0 0.078 0 0.12 0 26.443 21.437 47.88 47.88 47.88 0.042 0 0.084 0 0.127 0h-0.007z" />
<glyph unicode="&#xc98f;" horiz-adv-x="768" d="M655.74 386.96l34.12-34c8.736-8.652 14.145-20.649 14.145-33.91s-5.409-25.258-14.141-33.906l-0.004-0.004-271.86-271.14c-8.692-8.721-20.716-14.118-34-14.118s-25.308 5.396-33.999 14.116l-0.001 0.001-271.86 271.14c-8.736 8.652-14.145 20.649-14.145 33.91s5.409 25.258 14.141 33.906l0.004 0.004 34.12 34c8.692 8.721 20.716 14.118 34 14.118s25.308-5.396 33.999-14.116l0.001-0.001 131.62-131.22v400.26c0 0 0 0 0 0 0 26.51 21.49 48 48 48 0.042 0 0.084 0 0.127 0h48.153c0.042 0 0.091 0 0.14 0 26.51 0 48-21.49 48-48 0 0 0 0 0 0v0-400.26l131.7 131.22c8.657 8.692 20.635 14.071 33.87 14.071s25.213-5.379 33.868-14.069l0.002-0.002z" />
<glyph unicode="&#xc990;" horiz-adv-x="896" d="M848 366h-572.8l-83.2 82 83.18 82h572.82c26.6 0 48-22 48-49.26v-65.64c0.003-0.197 0.005-0.429 0.005-0.662 0-26.6-21.44-48.192-47.981-48.438h-0.023z" />
<glyph unicode="&#xc991;" horiz-adv-x="896" d="M403.38 13.040l-1.42 1.42-387.96 398.66c-8.71 8.987-14.079 21.257-14.079 34.78s5.369 25.793 14.091 34.793l-0.013-0.013 388 398.86c8.529 8.915 20.521 14.456 33.808 14.456 12.591 0 24.020-4.977 32.427-13.070l-0.015 0.014c0.48-0.44 0.94-0.92 1.4-1.4l44.26-45.54c8.646-9.013 13.97-21.271 13.97-34.772 0-13.903-5.645-26.488-14.769-35.587l-0.001-0.001-321.46-317.64 321.46-317.6c9.214-9.056 14.924-21.652 14.924-35.582 0-13.531-5.388-25.803-14.135-34.789l0.011 0.011-44.3-45.56c-8.53-8.921-20.526-14.467-33.818-14.467-12.576 0-23.993 4.965-32.397 13.042l0.015-0.015z" />
<glyph unicode="&#xc992;" horiz-adv-x="896" d="M48 530h572.8l83.2-82-83.18-82h-572.82c-26.6 0-48 22-48 49.26v65.64c-0.003 0.197-0.005 0.429-0.005 0.662 0 26.6 21.44 48.192 47.981 48.438h0.023z" />
<glyph unicode="&#xc993;" horiz-adv-x="896" d="M492.62 882.96c0.48-0.46 0.96-0.94 1.42-1.42l387.96-398.66c8.71-8.987 14.079-21.257 14.079-34.78s-5.369-25.793-14.091-34.793l0.013 0.013-388-398.86c-8.529-8.915-20.521-14.456-33.808-14.456-12.591 0-24.020 4.977-32.427 13.070l0.015-0.014c-0.48 0.44-0.94 0.92-1.4 1.4l-44.26 45.54c-8.646 9.013-13.97 21.271-13.97 34.772 0 13.903 5.645 26.488 14.769 35.587l0.001 0.001 321.46 317.64-321.46 317.6c-9.214 9.056-14.924 21.652-14.924 35.582 0 13.531 5.388 25.803 14.135 34.789l-0.011-0.011 44.3 45.56c8.53 8.921 20.526 14.467 33.818 14.467 12.576 0 23.993-4.965 32.397-13.042l-0.015 0.015z" />
<glyph unicode="&#xc994;" d="M880 448l-69.36-64h-234.64v-234.68l-64-69.32-64 69.36v234.64h-234.68l-69.32 64 69.36 64h234.64v234.68l64 69.32 64-69.34v-234.66h234.68z" />
<glyph unicode="&#xc995;" d="M257.14 618.58l-0.92 0.94-21.66 21.68c-8.685 8.68-20.681 14.048-33.93 14.048s-25.245-5.368-33.93-14.048l-148-148c-11.573-11.58-18.73-27.574-18.73-45.24s7.157-33.66 18.731-45.24l148-148c8.685-8.68 20.681-14.048 33.93-14.048s25.245 5.368 33.93 14.048v0l22.58 22.62c8.132 8.581 13.133 20.201 13.133 32.99 0 13.713-5.751 26.083-14.972 34.83l-0.021 0.020-111.28 102.82 111.32 102.74c9.23 8.766 14.972 21.127 14.972 34.83 0 12.798-5.008 24.426-13.172 33.031l0.020-0.021zM1005.24 493.24l-148 148c-8.685 8.68-20.681 14.048-33.93 14.048s-25.245-5.368-33.93-14.048v0l-22.58-22.62c-8.132-8.581-13.133-20.201-13.133-32.99 0-13.713 5.751-26.083 14.972-34.83l0.021-0.020 111.34-102.78-111.32-102.74c-9.243-8.767-14.993-21.137-14.993-34.85 0-12.788 5.001-24.408 13.154-33.011l-0.020 0.022 0.92-0.94 21.66-21.68c8.685-8.68 20.681-14.048 33.93-14.048s25.245 5.368 33.93 14.048l148 148c11.573 11.58 18.73 27.574 18.73 45.24s-7.157 33.66-18.731 45.24v0zM683.52 192.22l-0.94 0.92c-8.581 8.132-20.201 13.133-32.99 13.133-13.713 0-26.083-5.751-34.83-14.972l-0.020-0.021-102.74-111.28-102.74 111.32c-8.767 9.243-21.137 14.993-34.85 14.993-12.788 0-24.408-5.001-33.011-13.154l0.022 0.020-0.94-0.92-21.68-21.7c-8.68-8.685-14.048-20.681-14.048-33.93s5.368-25.245 14.048-33.93l148-148c11.58-11.573 27.574-18.73 45.24-18.73s33.66 7.157 45.24 18.731l148 148c8.68 8.685 14.048 20.681 14.048 33.93s-5.368 25.245-14.048 33.93v0zM557.24 941.24c-11.58 11.573-27.574 18.73-45.24 18.73s-33.66-7.157-45.24-18.731l-148-148c-8.68-8.685-14.048-20.681-14.048-33.93s5.368-25.245 14.048-33.93v0l22.62-22.58c8.581-8.132 20.201-13.133 32.99-13.133 13.713 0 26.083 5.751 34.83 14.972l0.020 0.021 102.78 111.34 102.74-111.32c8.767-9.243 21.137-14.993 34.85-14.993 12.788 0 24.408 5.001 33.011 13.154l-0.022-0.020 0.94 0.92 21.68 21.66c8.68 8.685 14.048 20.681 14.048 33.93s-5.368 25.245-14.048 33.93v0z" />
<glyph unicode="&#xc996;" d="M768 384h-192v-192h-128v192h-192v128h192v192h128v-192h192z" />
<glyph unicode="&#xc997;" d="M1009.86 481.86l-159.4 158c-30.46 30.14-82.46 8.8-82.46-33.86v-316c0-42.68 52-64 82.46-33.86l159.8 158.4c8.496 8.594 13.745 20.414 13.745 33.46 0 13.245-5.41 25.226-14.14 33.855l-0.005 0.004zM173.54 639.86l-159.8-158.4c-8.496-8.594-13.745-20.414-13.745-33.46 0-13.245 5.41-25.226 14.14-33.855l0.005-0.004 159.4-158c30.46-30.14 82.46-8.8 82.46 33.86v316c0 42.68-52 64-82.46 33.86zM670 192h-316c-42.68 0-64-52-33.86-82.46l158.4-159.8c8.594-8.496 20.414-13.745 33.46-13.745 13.245 0 25.226 5.41 33.855 14.14l0.004 0.005 158 159.4c30.14 30.46 8.8 82.46-33.86 82.46zM545.86 945.86l-0.4 0.4c-8.594 8.496-20.414 13.745-33.46 13.745-13.245 0-25.226-5.41-33.855-14.14l-0.004-0.005-158-159.4c-30.14-30.46-8.8-82.46 33.86-82.46h316c42.68 0 64 52 33.86 82.46z" />
<glyph unicode="&#xc998;" d="M268.2 528h487.8v-160h-487.8z" />
<glyph unicode="&#xc999;" d="M756 620v-344c0-42.82 51.76-64.2 82-34l172 172c8.686 8.686 14.058 20.686 14.058 33.94s-5.372 25.254-14.058 33.94l-172 172.12c-30.34 30-82 8.72-82-34zM268.2 276v343.78c0 42.82-51.76 64.2-82 34l-172.2-172c-8.656-8.681-14.008-20.661-14.008-33.89s5.352-25.209 14.009-33.891l-0.001 0.001 172.2-172c30.3-30.12 82-8.74 82 34z" />
<glyph unicode="&#xc99a;" horiz-adv-x="512" d="M176 204v487.84h160v-487.84z" />
<glyph unicode="&#xc99b;" horiz-adv-x="512" d="M84 691.84h343.88c42.8 0 64.18 51.74 34 82l-171.88 172.16c-8.681 8.656-20.661 14.008-33.89 14.008s-25.209-5.352-33.891-14.009l-172.219-172.179c-30-30.3-8.64-81.98 34-81.98zM427.88 204h-343.6c-42.8 0-64.18-51.76-34-82l172-172c8.678-8.638 20.645-13.978 33.86-13.978s25.182 5.34 33.862 13.98l171.858 171.998c30.14 30.46 8.8 82-33.98 82z" />
<glyph unicode="&#xc99c;" d="M811.32 384h-598.64l-67.54 64 67.54 64h598.64l67.54-64z" />
<glyph unicode="&#xc99d;" d="M717.18 667.26c-8.161-8.567-13.182-20.19-13.182-32.985 0-13.728 5.78-26.105 15.038-34.833l0.024-0.022 159.8-151.42-159.8-151.42c-9.282-8.75-15.062-21.127-15.062-34.855 0-12.795 5.021-24.418 13.2-33.005l-0.018 0.020 22.62-22.74c8.735-8.709 20.789-14.094 34.1-14.094s25.365 5.385 34.101 14.095l197.299 196.719c11.612 11.562 18.797 27.562 18.797 45.24s-7.185 33.678-18.795 45.238l-0.002 0.002-197.3 196.8c-8.73 8.679-20.764 14.044-34.050 14.044s-25.32-5.365-34.052-14.046l0.002 0.002zM306.82 228.74c8.161 8.567 13.182 20.19 13.182 32.985 0 13.728-5.78 26.105-15.038 34.833l-0.024 0.022-159.8 151.42 159.8 151.42c9.282 8.75 15.062 21.127 15.062 34.855 0 12.795-5.021 24.418-13.2 33.005l0.018-0.020-22.62 22.74c-8.725 8.649-20.738 13.994-34 13.994s-25.275-5.345-34.003-13.998l0.003 0.003-197.4-196.76c-11.612-11.562-18.797-27.562-18.797-45.24s7.185-33.678 18.795-45.238l0.002-0.002 197.3-196.76c8.73-8.679 20.764-14.044 34.050-14.044s25.32 5.365 34.052 14.046l-0.002-0.002z" />
<glyph unicode="&#xc99e;" horiz-adv-x="896" d="M800 896h-704c-53.019 0-96-42.981-96-96v0-704c0-53.019 42.981-96 96-96v0h704c53.019 0 96 42.981 96 96v0 704c0 53.019-42.981 96-96 96v0zM768 432c0-0.036 0-0.078 0-0.12 0-26.443-21.437-47.88-47.88-47.88-0.042 0-0.084 0-0.127 0h-365.193l151-144.8c9.143-8.754 14.826-21.059 14.826-34.692 0-13.239-5.359-25.225-14.027-33.909l0.001 0.001-22-21.8c-8.66-8.71-20.65-14.101-33.9-14.101s-25.24 5.391-33.898 14.099l-265.402 265.402c-8.71 8.66-14.101 20.65-14.101 33.9s5.391 25.24 14.099 33.898l265.402 265.202c8.66 8.71 20.65 14.101 33.9 14.101s25.24-5.391 33.898-14.099l0.002-0.002 22-21.8c8.667-8.683 14.026-20.67 14.026-33.908 0-13.632-5.683-25.937-14.809-34.675l-0.017-0.017-151-144.8h365.2c0.036 0 0.078 0 0.12 0 26.443 0 47.88-21.437 47.88-47.88 0-0.042 0-0.084 0-0.127v0.007z" />
<glyph unicode="&#xc99f;" horiz-adv-x="896" d="M506.6 170.6l-22-21.8c-8.66-8.71-20.65-14.101-33.9-14.101s-25.24 5.391-33.898 14.099l-265.402 265.402c-8.71 8.66-14.101 20.65-14.101 33.9s5.391 25.24 14.099 33.898l265.402 265.202c8.66 8.71 20.65 14.101 33.9 14.101s25.24-5.391 33.898-14.099l0.002-0.002 22-21.8c8.667-8.683 14.026-20.67 14.026-33.908 0-13.632-5.683-25.937-14.809-34.675l-0.017-0.017-151-144.8h365.2c0.036 0 0.078 0 0.12 0 26.443 0 47.88-21.437 47.88-47.88 0-0.042 0-0.084 0-0.127v0.007-32c0-0.036 0-0.078 0-0.12 0-26.443-21.437-47.88-47.88-47.88-0.042 0-0.084 0-0.127 0h-365.193l151-144.8c9.143-8.754 14.826-21.059 14.826-34.692 0-13.239-5.359-25.225-14.027-33.909l0.001 0.001z" />
<glyph unicode="&#xc9a0;" horiz-adv-x="896" d="M800 896h-704c-53.019 0-96-42.981-96-96v0-704c0-53.019 42.981-96 96-96v0h704c53.019 0 96 42.981 96 96v0 704c0 53.019-42.981 96-96 96v0zM744.6 414l-265.4-265.2c-8.66-8.71-20.65-14.101-33.9-14.101s-25.24 5.391-33.898 14.099l-0.002 0.002-22 21.8c-8.667 8.683-14.026 20.67-14.026 33.908 0 13.632 5.683 25.937 14.809 34.675l0.017 0.017 151 144.8h-365.2c-0.036 0-0.078 0-0.12 0-26.443 0-47.88 21.437-47.88 47.88 0 0.042 0 0.084 0 0.127v-0.007 32c0 0.036 0 0.078 0 0.12 0 26.443 21.437 47.88 47.88 47.88 0.042 0 0.084 0 0.127 0h365.193l-151 144.8c-9.13 8.8-14.8 21.135-14.8 34.794 0 13.265 5.347 25.28 14.003 34.009l-0.003-0.003 22 21.8c8.66 8.71 20.65 14.101 33.9 14.101s25.24-5.391 33.898-14.099l265.402-265.602c8.71-8.66 14.101-20.65 14.101-33.9s-5.391-25.24-14.099-33.898l-0.002-0.002z" />
<glyph unicode="&#xc9a1;" horiz-adv-x="896" d="M389.4 725.6l22 21.8c8.66 8.71 20.65 14.101 33.9 14.101s25.24-5.391 33.898-14.099l265.402-265.602c8.71-8.66 14.101-20.65 14.101-33.9s-5.391-25.24-14.099-33.898l-265.402-265.202c-8.66-8.71-20.65-14.101-33.9-14.101s-25.24 5.391-33.898 14.099l-0.002 0.002-22 21.8c-8.667 8.683-14.026 20.67-14.026 33.908 0 13.632 5.683 25.937 14.809 34.675l0.017 0.017 151 144.8h-365.2c-0.036 0-0.078 0-0.12 0-26.443 0-47.88 21.437-47.88 47.88 0 0.042 0 0.084 0 0.127v-0.007 32c0 0.036 0 0.078 0 0.12 0 26.443 21.437 47.88 47.88 47.88 0.042 0 0.084 0 0.127 0h365.193l-151 144.8c-9.13 8.8-14.8 21.135-14.8 34.794 0 13.265 5.347 25.28 14.003 34.009l-0.003-0.003z" />
<glyph unicode="&#xc9a2;" horiz-adv-x="896" d="M800 896h-704c-53.019 0-96-42.981-96-96v0-704c0-53.019 42.981-96 96-96v0h704c53.019 0 96 42.981 96 96v0 704c0 53.019-42.981 96-96 96v0zM747.2 411.4l-21.8-22c-8.683-8.667-20.67-14.026-33.908-14.026-13.632 0-25.937 5.683-34.675 14.809l-0.017 0.017-144.8 151v-365.2c0-0.036 0-0.078 0-0.12 0-26.443-21.437-47.88-47.88-47.88-0.042 0-0.084 0-0.127 0h-31.993c-0.036 0-0.078 0-0.12 0-26.443 0-47.88 21.437-47.88 47.88 0 0.042 0 0.084 0 0.127v-0.007 365.2l-144.8-151c-8.8-9.13-21.135-14.8-34.794-14.8-13.265 0-25.28 5.347-34.009 14.003l0.003-0.003-21.8 22c-8.71 8.66-14.101 20.65-14.101 33.9s5.391 25.24 14.099 33.898l265.602 265.402c8.66 8.71 20.65 14.101 33.9 14.101s25.24-5.391 33.898-14.099l265.202-265.402c8.71-8.66 14.101-20.65 14.101-33.9s-5.391-25.24-14.099-33.898l-0.002-0.002z" />
<glyph unicode="&#xc9a3;" horiz-adv-x="896" d="M170.4 389.4l-21.8 22c-8.71 8.66-14.101 20.65-14.101 33.9s5.391 25.24 14.099 33.898l265.602 265.402c8.66 8.71 20.65 14.101 33.9 14.101s25.24-5.391 33.898-14.099l265.202-265.402c8.71-8.66 14.101-20.65 14.101-33.9s-5.391-25.24-14.099-33.898l-0.002-0.002-21.8-22c-8.683-8.667-20.67-14.026-33.908-14.026-13.632 0-25.937 5.683-34.675 14.809l-0.017 0.017-144.8 151v-365.2c0-0.036 0-0.078 0-0.12 0-26.443-21.437-47.88-47.88-47.88-0.042 0-0.084 0-0.127 0h-31.993c-0.036 0-0.078 0-0.12 0-26.443 0-47.88 21.437-47.88 47.88 0 0.042 0 0.084 0 0.127v-0.007 365.2l-144.8-151c-8.8-9.13-21.135-14.8-34.794-14.8-13.265 0-25.28 5.347-34.009 14.003l0.003-0.003z" />
<glyph unicode="&#xc9a4;" horiz-adv-x="512" d="M320 747.32v-598.64l-64-67.54-64 67.54v598.64l64 67.54z" />
<glyph unicode="&#xc9a5;" horiz-adv-x="512" d="M36.74 653.18c8.567-8.161 20.19-13.182 32.985-13.182 13.728 0 26.105 5.78 34.833 15.038l0.022 0.024 151.42 159.8 151.42-159.8c8.75-9.282 21.127-15.062 34.855-15.062 12.795 0 24.418 5.021 33.005 13.2l-0.020-0.018 22.74 22.62c8.649 8.725 13.994 20.738 13.994 34s-5.345 25.275-13.998 34.003l0.003-0.003-196.76 197.4c-11.562 11.612-27.562 18.797-45.24 18.797s-33.678-7.185-45.238-18.795l-0.002-0.002-196.76-197.3c-8.679-8.73-14.044-20.764-14.044-34.050s5.365-25.32 14.046-34.052l-0.002 0.002zM475.26 242.82c-8.567 8.161-20.19 13.182-32.985 13.182-13.728 0-26.105-5.78-34.833-15.038l-0.022-0.024-151.42-159.8-151.42 159.8c-8.75 9.282-21.127 15.062-34.855 15.062-12.795 0-24.418-5.021-33.005-13.2l0.020 0.018-22.74-22.62c-8.709-8.735-14.094-20.789-14.094-34.1s5.385-25.365 14.095-34.101l196.719-197.299c11.562-11.612 27.562-18.797 45.24-18.797s33.678 7.185 45.238 18.795l0.002 0.002 196.8 197.3c8.679 8.73 14.044 20.764 14.044 34.050s-5.365 25.32-14.046 34.052l0.002-0.002z" />
<glyph unicode="&#xc9a6;" horiz-adv-x="768" d="M720 0h-672c-0.036 0-0.078 0-0.12 0-26.401 0-47.812 21.368-47.88 47.754v32.247c0 0.036 0 0.078 0 0.12 0 26.401 21.368 47.812 47.754 47.88h672.247c0.036 0 0.078 0 0.12 0 26.401 0 47.812-21.368 47.88-47.754v-32.247c0-0.036 0-0.078 0-0.12 0-26.401-21.368-47.812-47.754-47.88h-0.007z" />
<glyph unicode="&#xc9a7;" horiz-adv-x="768" d="M655.74 578.96l34.12-34c8.736-8.652 14.145-20.649 14.145-33.91 0-13.092-5.272-24.952-13.808-33.574l-0.336-0.336-271.86-271.14c-8.692-8.721-20.716-14.118-34-14.118-13.224 0-25.2 5.348-33.881 13.999l-0.119 0.119-271.86 271.14c-8.736 8.652-14.145 20.649-14.145 33.91 0 13.092 5.272 24.952 13.808 33.574l0.336 0.336 34.12 34c8.692 8.721 20.716 14.118 34 14.118 13.224 0 25.2-5.348 33.881-13.999l0.119-0.119 131.62-131.22v400.26c0 26.51 21.49 48 48 48v0h48.28c0.042 0 0.091 0 0.14 0 26.461 0 47.92-21.411 48-47.853v-400.408l131.7 131.22c8.659 8.687 20.637 14.062 33.87 14.062 13.163 0 25.085-5.319 33.732-13.924l-0.002 0.002z" />
<glyph unicode="&#xc9a8;" horiz-adv-x="896" d="M0 112v672c0 0.036 0 0.078 0 0.12 0 26.443 21.437 47.88 47.88 47.88 0.042 0 0.084 0 0.127 0h31.993c0.036 0 0.078 0 0.12 0 26.443 0 47.88-21.437 47.88-47.88 0-0.042 0-0.084 0-0.127v0.007-672c0-0.036 0-0.078 0-0.12 0-26.443-21.437-47.88-47.88-47.88-0.042 0-0.084 0-0.127 0h-31.993c-0.036 0-0.078 0-0.12 0-26.443 0-47.88 21.437-47.88 47.88 0 0.042 0 0.084 0 0.127v-0.007z" />
<glyph unicode="&#xc9a9;" horiz-adv-x="896" d="M578.96 176.26l-34-34.12c-8.652-8.736-20.649-14.145-33.91-14.145s-25.258 5.409-33.906 14.141l-0.004 0.004-271.040 271.86c-8.721 8.692-14.118 20.716-14.118 34s5.396 25.308 14.116 33.999l0.001 0.001 271.040 271.86c8.652 8.736 20.649 14.145 33.91 14.145s25.258-5.409 33.906-14.141l0.004-0.004 34-34.12c8.721-8.692 14.118-20.716 14.118-34s-5.396-25.308-14.116-33.999l-0.001-0.001-131.22-131.62h400.26c0 0 0 0 0 0 26.51 0 48-21.49 48-48 0-0.042 0-0.084 0-0.127v0.007-48.16c0-0.042 0-0.091 0-0.14 0-26.51-21.49-48-48-48 0 0 0 0 0 0h-400.26l131.22-131.7c8.692-8.657 14.071-20.635 14.071-33.87s-5.379-25.213-14.069-33.868l-0.002-0.002z" />
<glyph unicode="&#xc9aa;" horiz-adv-x="896" d="M896 784v-672c0-0.036 0-0.078 0-0.12 0-26.443-21.437-47.88-47.88-47.88-0.042 0-0.084 0-0.127 0h-31.993c-0.036 0-0.078 0-0.12 0-26.443 0-47.88 21.437-47.88 47.88 0 0.042 0 0.084 0 0.127v-0.007 672c0 0.036 0 0.078 0 0.12 0 26.443 21.437 47.88 47.88 47.88 0.042 0 0.084 0 0.127 0h31.993c0.036 0 0.078 0 0.12 0 26.443 0 47.88-21.437 47.88-47.88 0-0.042 0-0.084 0-0.127v0.007z" />
<glyph unicode="&#xc9ab;" horiz-adv-x="896" d="M317.040 719.74l34 34.12c8.652 8.736 20.649 14.145 33.91 14.145s25.258-5.409 33.906-14.141l0.004-0.004 271.14-271.86c8.721-8.692 14.118-20.716 14.118-34s-5.396-25.308-14.116-33.999l-0.001-0.001-271.14-271.86c-8.652-8.736-20.649-14.145-33.91-14.145s-25.258 5.409-33.906 14.141l-0.004 0.004-34 34.12c-8.721 8.692-14.118 20.716-14.118 34s5.396 25.308 14.116 33.999l0.001 0.001 131.22 131.62h-400.26c0 0 0 0 0 0-26.51 0-48 21.49-48 48 0 0.042 0 0.084 0 0.127v-0.007 48.18c0 0.042 0 0.091 0 0.14 0 26.51 21.49 48 48 48 0 0 0 0 0 0h400.26l-131.22 131.68c-8.692 8.657-14.071 20.635-14.071 33.87s5.379 25.213 14.069 33.868l0.002 0.002z" />
<glyph unicode="&#xc9ac;" horiz-adv-x="768" d="M48 896h672c0.036 0 0.078 0 0.12 0 26.443 0 47.88-21.437 47.88-47.88 0-0.042 0-0.084 0-0.127v0.007-32c0-0.036 0-0.078 0-0.12 0-26.443-21.437-47.88-47.88-47.88-0.042 0-0.084 0-0.127 0h-671.993c-0.036 0-0.078 0-0.12 0-26.443 0-47.88 21.437-47.88 47.88 0 0.042 0 0.084 0 0.127v-0.007 32c0 0.036 0 0.078 0 0.12 0 26.443 21.437 47.88 47.88 47.88 0.042 0 0.084 0 0.127 0h-0.007z" />
<glyph unicode="&#xc9ad;" horiz-adv-x="768" d="M112.26 317.040l-34.12 34c-8.736 8.652-14.145 20.649-14.145 33.91s5.409 25.258 14.141 33.906l0.004 0.004 271.86 271.040c8.692 8.721 20.716 14.118 34 14.118s25.308-5.396 33.999-14.116l0.001-0.001 271.86-271.040c8.736-8.652 14.145-20.649 14.145-33.91s-5.409-25.258-14.141-33.906l-0.004-0.004-34.12-34c-8.692-8.721-20.716-14.118-34-14.118s-25.308 5.396-33.999 14.116l-0.001 0.001-131.62 131.22v-400.26c0 0 0 0 0 0 0-26.51-21.49-48-48-48-0.042 0-0.084 0-0.127 0h-48.173c-0.042 0-0.091 0-0.14 0-26.51 0-48 21.49-48 48 0 0 0 0 0 0v0 400.26l-131.68-131.22c-8.657-8.692-20.635-14.071-33.87-14.071s-25.213 5.379-33.868 14.069l-0.002 0.002z" />
<glyph unicode="&#xc9ae;" horiz-adv-x="896" d="M366 48v572.8l82 83.2 82-83.18v-572.82c0-26.6-22-48-49.26-48h-65.64c-0.197-0.003-0.429-0.005-0.662-0.005-26.6 0-48.192 21.44-48.438 47.981v0.023z" />
</font>
</defs>
</svg>
